<svg width="117" height="17" viewBox="0 0 117 17" fill="none" xmlns="http://www.w3.org/2000/svg">
<mask id="path-1-outside-1_80_553" maskUnits="userSpaceOnUse" x="-1" y="-1" width="118" height="19" fill="black">
<rect fill="white" x="-1" y="-1" width="118" height="19"/>
<path d="M8.57422 17C8.48047 17 8.41016 16.957 8.36328 16.8711L0.628906 1.39062V16.7773C0.628906 16.9258 0.550781 17 0.394531 17C0.246094 17 0.171875 16.9258 0.171875 16.7773V0.429688C0.171875 0.3125 0.230469 0.238281 0.347656 0.207031C0.464844 0.183594 0.550781 0.222656 0.605469 0.324219L8.33984 15.8164V0.429688C8.33984 0.28125 8.41797 0.207031 8.57422 0.207031C8.72266 0.207031 8.79688 0.28125 8.79688 0.429688V16.7773C8.79688 16.8945 8.73828 16.9648 8.62109 16.9883C8.60547 16.9961 8.58984 17 8.57422 17ZM15.2188 17C13.4375 17 12.1875 16.2852 11.4688 14.8555C11.0938 14.1289 10.9062 13.4062 10.9062 12.6875V0.441406C10.9062 0.285156 10.9805 0.207031 11.1289 0.207031C11.2852 0.207031 11.3633 0.285156 11.3633 0.441406V12.6875C11.3633 13.3672 11.5312 14.0312 11.8672 14.6797C12.5078 15.9219 13.625 16.543 15.2188 16.543C16.8125 16.543 17.9297 15.9219 18.5703 14.6797C18.9062 14.0312 19.0742 13.3672 19.0742 12.6875V0.441406C19.0742 0.285156 19.1484 0.207031 19.2969 0.207031C19.4531 0.207031 19.5312 0.285156 19.5312 0.441406V12.6875C19.5312 13.4062 19.3438 14.1289 18.9688 14.8555C18.2422 16.2852 16.9922 17 15.2188 17ZM29.8555 17C29.6992 17 29.6211 16.9258 29.6211 16.7773V1.17969L25.9531 6.6875C25.9141 6.75 25.8516 6.78125 25.7656 6.78125C25.6797 6.78125 25.6172 6.75 25.5781 6.6875L21.9102 1.17969V16.7773C21.9102 16.9258 21.832 17 21.6758 17C21.5273 17 21.4531 16.9258 21.4531 16.7773V0.429688C21.4531 0.320313 21.5078 0.246094 21.6172 0.207031C21.7188 0.175781 21.8008 0.207031 21.8633 0.300781L25.7656 6.14844L29.668 0.300781C29.7305 0.207031 29.8125 0.175781 29.9141 0.207031C30.0234 0.246094 30.0781 0.320313 30.0781 0.429688V16.7773C30.0781 16.9258 30.0039 17 29.8555 17ZM32.668 8.375H36.5234C37.2031 8.36719 37.8672 8.19922 38.5156 7.87109C39.7656 7.22266 40.3906 6.10156 40.3906 4.50781C40.3906 2.91406 39.7656 1.79297 38.5156 1.14453C37.8672 0.816406 37.2031 0.652344 36.5234 0.652344H32.668V8.375ZM32.668 16.543H36.5234C37.2031 16.543 37.8672 16.375 38.5156 16.0391C39.7656 15.3984 40.3906 14.2812 40.3906 12.6875C40.3906 11.0938 39.7656 9.97266 38.5156 9.32422C37.8672 8.98828 37.2031 8.82031 36.5234 8.82031H32.668V16.543ZM32.4336 17C32.2852 17 32.2109 16.9258 32.2109 16.7773V0.417969C32.2109 0.269531 32.2852 0.195312 32.4336 0.195312H36.5234C37.2422 0.195312 37.9688 0.378906 38.7031 0.746094C40.1328 1.47266 40.8477 2.72656 40.8477 4.50781C40.8477 6.64062 39.8555 8.00391 37.8711 8.59766C38.6836 8.83984 39.3359 9.23047 39.8281 9.76953C40.5078 10.5039 40.8477 11.4766 40.8477 12.6875C40.8477 14.4609 40.1328 15.7109 38.7031 16.4375C37.9688 16.8125 37.2422 17 36.5234 17H32.4336ZM43.1914 17C43.043 17 42.9688 16.9258 42.9688 16.7773V0.417969C42.9688 0.269531 43.043 0.195312 43.1914 0.195312H51.3711C51.5195 0.195312 51.5938 0.269531 51.5938 0.417969C51.5938 0.574219 51.5195 0.652344 51.3711 0.652344H43.4258V8.375H47.2812C47.4375 8.375 47.5156 8.44922 47.5156 8.59766C47.5156 8.74609 47.4375 8.82031 47.2812 8.82031H43.4258V16.543H51.3711C51.5195 16.543 51.5938 16.6211 51.5938 16.7773C51.5938 16.9258 51.5195 17 51.3711 17H43.1914ZM54.1602 8.36328H58.0156C58.6953 8.36328 59.3594 8.19922 60.0078 7.87109C61.2578 7.22266 61.8828 6.10156 61.8828 4.50781C61.8828 2.91406 61.2578 1.79297 60.0078 1.14453C59.3594 0.808594 58.6953 0.640625 58.0156 0.640625H54.1602V8.36328ZM62.1055 17C62.043 17 61.9883 16.9766 61.9414 16.9297L54.1602 9.14844V16.7773C54.1602 16.9258 54.082 17 53.9258 17C53.7773 17 53.7031 16.9258 53.7031 16.7773V0.417969C53.7031 0.269531 53.7773 0.195312 53.9258 0.195312H58.0156C58.7344 0.195312 59.4609 0.378906 60.1953 0.746094C61.625 1.47266 62.3398 2.72656 62.3398 4.50781C62.3398 6.28906 61.625 7.54297 60.1953 8.26953C59.4609 8.63672 58.7344 8.82031 58.0156 8.82031H54.4766L62.2695 16.6133C62.3789 16.7227 62.3789 16.8281 62.2695 16.9297C62.2227 16.9766 62.168 17 62.1055 17ZM64.707 17C64.5586 17 64.4844 16.9258 64.4844 16.7773C64.4844 16.6211 64.5586 16.543 64.707 16.543H68.7969C69.4766 16.543 70.1406 16.375 70.7891 16.0391C72.0391 15.3984 72.6641 14.2812 72.6641 12.6875C72.6641 11.0938 72.0391 9.97266 70.7891 9.32422C70.1406 8.99609 69.4766 8.82812 68.7969 8.82031C68.0781 8.82031 67.3555 8.63672 66.6289 8.26953C65.1992 7.54297 64.4844 6.28906 64.4844 4.50781C64.4844 2.73438 65.1992 1.48438 66.6289 0.757812C67.3555 0.382812 68.0781 0.195312 68.7969 0.195312H72.8867C73.0352 0.195312 73.1094 0.273438 73.1094 0.429688C73.1094 0.578125 73.0352 0.652344 72.8867 0.652344H68.7969C68.1172 0.652344 67.4531 0.820312 66.8047 1.15625C65.5625 1.79688 64.9414 2.91406 64.9414 4.50781C64.9414 6.10156 65.5625 7.22266 66.8047 7.87109C67.4531 8.19922 68.1172 8.36719 68.7969 8.375C69.5156 8.375 70.2422 8.55859 70.9766 8.92578C72.3984 9.65234 73.1094 10.9062 73.1094 12.6875C73.1094 14.4688 72.3984 15.7188 70.9766 16.4375C70.2422 16.8125 69.5156 17 68.7969 17H64.707ZM79.4844 17C77.7031 17 76.4531 16.2852 75.7344 14.8555C75.3594 14.1289 75.1719 13.4062 75.1719 12.6875V4.50781C75.1719 3.78906 75.3594 3.06641 75.7344 2.33984C76.4531 0.910156 77.7031 0.195312 79.4844 0.195312H83.5625C83.7188 0.195312 83.7969 0.269531 83.7969 0.417969C83.7969 0.574219 83.7227 0.652344 83.5742 0.652344H79.4844C77.8906 0.652344 76.7734 1.27344 76.1328 2.51562C75.7969 3.16406 75.6289 3.82812 75.6289 4.50781V12.6875C75.6289 13.3672 75.7969 14.0312 76.1328 14.6797C76.7734 15.9219 77.8906 16.543 79.4844 16.543H83.5625C83.7188 16.543 83.7969 16.6211 83.7969 16.7773C83.7969 16.9258 83.7227 17 83.5742 17H79.4844ZM90.2188 0.652344C88.625 0.652344 87.5078 1.27344 86.8672 2.51562C86.5312 3.16406 86.3633 3.82812 86.3633 4.50781V12.6875C86.3633 13.3672 86.5312 14.0312 86.8672 14.6797C87.5078 15.9219 88.625 16.543 90.2188 16.543C91.8125 16.543 92.9336 15.9219 93.582 14.6797C93.9102 14.0312 94.0781 13.3672 94.0859 12.6875V4.50781C94.0781 3.82812 93.9102 3.16406 93.582 2.51562C92.9336 1.27344 91.8125 0.652344 90.2188 0.652344ZM90.2188 17C88.4375 17 87.1875 16.2852 86.4688 14.8555C86.0938 14.1289 85.9062 13.4062 85.9062 12.6875V4.50781C85.9062 3.78906 86.0938 3.06641 86.4688 2.33984C87.1875 0.910156 88.4375 0.195312 90.2188 0.195312C92 0.195312 93.2539 0.910156 93.9805 2.33984C94.3477 3.06641 94.5312 3.78906 94.5312 4.50781V12.6875C94.5312 13.4062 94.3477 14.1289 93.9805 14.8555C93.2539 16.2852 92 17 90.2188 17ZM97.1211 8.375H100.977C101.656 8.36719 102.32 8.19922 102.969 7.87109C104.219 7.22266 104.844 6.10156 104.844 4.50781C104.844 2.91406 104.219 1.79688 102.969 1.15625C102.32 0.820312 101.656 0.652344 100.977 0.652344H97.1211V8.375ZM96.8867 17C96.7383 17 96.6641 16.9258 96.6641 16.7773V0.417969C96.6641 0.269531 96.7383 0.195312 96.8867 0.195312H100.977C101.695 0.195312 102.422 0.382812 103.156 0.757812C104.578 1.47656 105.289 2.72656 105.289 4.50781C105.289 6.28906 104.578 7.54297 103.156 8.26953C102.422 8.63672 101.695 8.82031 100.977 8.82031H97.1211V16.7773C97.1211 16.9258 97.043 17 96.8867 17ZM107.621 17C107.473 17 107.398 16.9258 107.398 16.7773V0.417969C107.398 0.269531 107.473 0.195312 107.621 0.195312H115.801C115.949 0.195312 116.023 0.269531 116.023 0.417969C116.023 0.574219 115.949 0.652344 115.801 0.652344H107.855V8.375H111.711C111.867 8.375 111.945 8.44922 111.945 8.59766C111.945 8.74609 111.867 8.82031 111.711 8.82031H107.855V16.543H115.801C115.949 16.543 116.023 16.6211 116.023 16.7773C116.023 16.9258 115.949 17 115.801 17H107.621Z"/>
</mask>
<path d="M8.57422 17C8.48047 17 8.41016 16.957 8.36328 16.8711L0.628906 1.39062V16.7773C0.628906 16.9258 0.550781 17 0.394531 17C0.246094 17 0.171875 16.9258 0.171875 16.7773V0.429688C0.171875 0.3125 0.230469 0.238281 0.347656 0.207031C0.464844 0.183594 0.550781 0.222656 0.605469 0.324219L8.33984 15.8164V0.429688C8.33984 0.28125 8.41797 0.207031 8.57422 0.207031C8.72266 0.207031 8.79688 0.28125 8.79688 0.429688V16.7773C8.79688 16.8945 8.73828 16.9648 8.62109 16.9883C8.60547 16.9961 8.58984 17 8.57422 17ZM15.2188 17C13.4375 17 12.1875 16.2852 11.4688 14.8555C11.0938 14.1289 10.9062 13.4062 10.9062 12.6875V0.441406C10.9062 0.285156 10.9805 0.207031 11.1289 0.207031C11.2852 0.207031 11.3633 0.285156 11.3633 0.441406V12.6875C11.3633 13.3672 11.5312 14.0312 11.8672 14.6797C12.5078 15.9219 13.625 16.543 15.2188 16.543C16.8125 16.543 17.9297 15.9219 18.5703 14.6797C18.9062 14.0312 19.0742 13.3672 19.0742 12.6875V0.441406C19.0742 0.285156 19.1484 0.207031 19.2969 0.207031C19.4531 0.207031 19.5312 0.285156 19.5312 0.441406V12.6875C19.5312 13.4062 19.3438 14.1289 18.9688 14.8555C18.2422 16.2852 16.9922 17 15.2188 17ZM29.8555 17C29.6992 17 29.6211 16.9258 29.6211 16.7773V1.17969L25.9531 6.6875C25.9141 6.75 25.8516 6.78125 25.7656 6.78125C25.6797 6.78125 25.6172 6.75 25.5781 6.6875L21.9102 1.17969V16.7773C21.9102 16.9258 21.832 17 21.6758 17C21.5273 17 21.4531 16.9258 21.4531 16.7773V0.429688C21.4531 0.320313 21.5078 0.246094 21.6172 0.207031C21.7188 0.175781 21.8008 0.207031 21.8633 0.300781L25.7656 6.14844L29.668 0.300781C29.7305 0.207031 29.8125 0.175781 29.9141 0.207031C30.0234 0.246094 30.0781 0.320313 30.0781 0.429688V16.7773C30.0781 16.9258 30.0039 17 29.8555 17ZM32.668 8.375H36.5234C37.2031 8.36719 37.8672 8.19922 38.5156 7.87109C39.7656 7.22266 40.3906 6.10156 40.3906 4.50781C40.3906 2.91406 39.7656 1.79297 38.5156 1.14453C37.8672 0.816406 37.2031 0.652344 36.5234 0.652344H32.668V8.375ZM32.668 16.543H36.5234C37.2031 16.543 37.8672 16.375 38.5156 16.0391C39.7656 15.3984 40.3906 14.2812 40.3906 12.6875C40.3906 11.0938 39.7656 9.97266 38.5156 9.32422C37.8672 8.98828 37.2031 8.82031 36.5234 8.82031H32.668V16.543ZM32.4336 17C32.2852 17 32.2109 16.9258 32.2109 16.7773V0.417969C32.2109 0.269531 32.2852 0.195312 32.4336 0.195312H36.5234C37.2422 0.195312 37.9688 0.378906 38.7031 0.746094C40.1328 1.47266 40.8477 2.72656 40.8477 4.50781C40.8477 6.64062 39.8555 8.00391 37.8711 8.59766C38.6836 8.83984 39.3359 9.23047 39.8281 9.76953C40.5078 10.5039 40.8477 11.4766 40.8477 12.6875C40.8477 14.4609 40.1328 15.7109 38.7031 16.4375C37.9688 16.8125 37.2422 17 36.5234 17H32.4336ZM43.1914 17C43.043 17 42.9688 16.9258 42.9688 16.7773V0.417969C42.9688 0.269531 43.043 0.195312 43.1914 0.195312H51.3711C51.5195 0.195312 51.5938 0.269531 51.5938 0.417969C51.5938 0.574219 51.5195 0.652344 51.3711 0.652344H43.4258V8.375H47.2812C47.4375 8.375 47.5156 8.44922 47.5156 8.59766C47.5156 8.74609 47.4375 8.82031 47.2812 8.82031H43.4258V16.543H51.3711C51.5195 16.543 51.5938 16.6211 51.5938 16.7773C51.5938 16.9258 51.5195 17 51.3711 17H43.1914ZM54.1602 8.36328H58.0156C58.6953 8.36328 59.3594 8.19922 60.0078 7.87109C61.2578 7.22266 61.8828 6.10156 61.8828 4.50781C61.8828 2.91406 61.2578 1.79297 60.0078 1.14453C59.3594 0.808594 58.6953 0.640625 58.0156 0.640625H54.1602V8.36328ZM62.1055 17C62.043 17 61.9883 16.9766 61.9414 16.9297L54.1602 9.14844V16.7773C54.1602 16.9258 54.082 17 53.9258 17C53.7773 17 53.7031 16.9258 53.7031 16.7773V0.417969C53.7031 0.269531 53.7773 0.195312 53.9258 0.195312H58.0156C58.7344 0.195312 59.4609 0.378906 60.1953 0.746094C61.625 1.47266 62.3398 2.72656 62.3398 4.50781C62.3398 6.28906 61.625 7.54297 60.1953 8.26953C59.4609 8.63672 58.7344 8.82031 58.0156 8.82031H54.4766L62.2695 16.6133C62.3789 16.7227 62.3789 16.8281 62.2695 16.9297C62.2227 16.9766 62.168 17 62.1055 17ZM64.707 17C64.5586 17 64.4844 16.9258 64.4844 16.7773C64.4844 16.6211 64.5586 16.543 64.707 16.543H68.7969C69.4766 16.543 70.1406 16.375 70.7891 16.0391C72.0391 15.3984 72.6641 14.2812 72.6641 12.6875C72.6641 11.0938 72.0391 9.97266 70.7891 9.32422C70.1406 8.99609 69.4766 8.82812 68.7969 8.82031C68.0781 8.82031 67.3555 8.63672 66.6289 8.26953C65.1992 7.54297 64.4844 6.28906 64.4844 4.50781C64.4844 2.73438 65.1992 1.48438 66.6289 0.757812C67.3555 0.382812 68.0781 0.195312 68.7969 0.195312H72.8867C73.0352 0.195312 73.1094 0.273438 73.1094 0.429688C73.1094 0.578125 73.0352 0.652344 72.8867 0.652344H68.7969C68.1172 0.652344 67.4531 0.820312 66.8047 1.15625C65.5625 1.79688 64.9414 2.91406 64.9414 4.50781C64.9414 6.10156 65.5625 7.22266 66.8047 7.87109C67.4531 8.19922 68.1172 8.36719 68.7969 8.375C69.5156 8.375 70.2422 8.55859 70.9766 8.92578C72.3984 9.65234 73.1094 10.9062 73.1094 12.6875C73.1094 14.4688 72.3984 15.7188 70.9766 16.4375C70.2422 16.8125 69.5156 17 68.7969 17H64.707ZM79.4844 17C77.7031 17 76.4531 16.2852 75.7344 14.8555C75.3594 14.1289 75.1719 13.4062 75.1719 12.6875V4.50781C75.1719 3.78906 75.3594 3.06641 75.7344 2.33984C76.4531 0.910156 77.7031 0.195312 79.4844 0.195312H83.5625C83.7188 0.195312 83.7969 0.269531 83.7969 0.417969C83.7969 0.574219 83.7227 0.652344 83.5742 0.652344H79.4844C77.8906 0.652344 76.7734 1.27344 76.1328 2.51562C75.7969 3.16406 75.6289 3.82812 75.6289 4.50781V12.6875C75.6289 13.3672 75.7969 14.0312 76.1328 14.6797C76.7734 15.9219 77.8906 16.543 79.4844 16.543H83.5625C83.7188 16.543 83.7969 16.6211 83.7969 16.7773C83.7969 16.9258 83.7227 17 83.5742 17H79.4844ZM90.2188 0.652344C88.625 0.652344 87.5078 1.27344 86.8672 2.51562C86.5312 3.16406 86.3633 3.82812 86.3633 4.50781V12.6875C86.3633 13.3672 86.5312 14.0312 86.8672 14.6797C87.5078 15.9219 88.625 16.543 90.2188 16.543C91.8125 16.543 92.9336 15.9219 93.582 14.6797C93.9102 14.0312 94.0781 13.3672 94.0859 12.6875V4.50781C94.0781 3.82812 93.9102 3.16406 93.582 2.51562C92.9336 1.27344 91.8125 0.652344 90.2188 0.652344ZM90.2188 17C88.4375 17 87.1875 16.2852 86.4688 14.8555C86.0938 14.1289 85.9062 13.4062 85.9062 12.6875V4.50781C85.9062 3.78906 86.0938 3.06641 86.4688 2.33984C87.1875 0.910156 88.4375 0.195312 90.2188 0.195312C92 0.195312 93.2539 0.910156 93.9805 2.33984C94.3477 3.06641 94.5312 3.78906 94.5312 4.50781V12.6875C94.5312 13.4062 94.3477 14.1289 93.9805 14.8555C93.2539 16.2852 92 17 90.2188 17ZM97.1211 8.375H100.977C101.656 8.36719 102.32 8.19922 102.969 7.87109C104.219 7.22266 104.844 6.10156 104.844 4.50781C104.844 2.91406 104.219 1.79688 102.969 1.15625C102.32 0.820312 101.656 0.652344 100.977 0.652344H97.1211V8.375ZM96.8867 17C96.7383 17 96.6641 16.9258 96.6641 16.7773V0.417969C96.6641 0.269531 96.7383 0.195312 96.8867 0.195312H100.977C101.695 0.195312 102.422 0.382812 103.156 0.757812C104.578 1.47656 105.289 2.72656 105.289 4.50781C105.289 6.28906 104.578 7.54297 103.156 8.26953C102.422 8.63672 101.695 8.82031 100.977 8.82031H97.1211V16.7773C97.1211 16.9258 97.043 17 96.8867 17ZM107.621 17C107.473 17 107.398 16.9258 107.398 16.7773V0.417969C107.398 0.269531 107.473 0.195312 107.621 0.195312H115.801C115.949 0.195312 116.023 0.269531 116.023 0.417969C116.023 0.574219 115.949 0.652344 115.801 0.652344H107.855V8.375H111.711C111.867 8.375 111.945 8.44922 111.945 8.59766C111.945 8.74609 111.867 8.82031 111.711 8.82031H107.855V16.543H115.801C115.949 16.543 116.023 16.6211 116.023 16.7773C116.023 16.9258 115.949 17 115.801 17H107.621Z" fill="white"/>
<path d="M8.36328 16.8711L8.00546 17.0499L8.00867 17.0563L8.01212 17.0626L8.36328 16.8711ZM0.628906 1.39062L0.986731 1.21185L0.228906 1.39062H0.628906ZM0.347656 0.207031L0.26921 -0.185201L0.25681 -0.182721L0.244591 -0.179463L0.347656 0.207031ZM0.605469 0.324219L0.963519 0.145464L0.957657 0.134579L0.605469 0.324219ZM8.33984 15.8164L7.98197 15.9951L8.73984 15.8164H8.33984ZM8.62109 16.9883L8.54265 16.596L8.49012 16.6066L8.44221 16.6305L8.62109 16.9883ZM8.57422 16.6C8.59058 16.6 8.62381 16.6045 8.65975 16.6265C8.69479 16.6479 8.71064 16.6726 8.71444 16.6796L8.01212 17.0626C8.0628 17.1555 8.13724 17.2447 8.24259 17.3091C8.34884 17.374 8.46411 17.4 8.57422 17.4V16.6ZM8.72111 16.6923L0.986731 1.21185L0.271081 1.5694L8.00546 17.0499L8.72111 16.6923ZM0.228906 1.39062V16.7773H1.02891V1.39062H0.228906ZM0.228906 16.7773C0.228906 16.7845 0.228035 16.7178 0.294813 16.6543C0.357749 16.5945 0.415973 16.6 0.394531 16.6V17.4C0.52934 17.4 0.704751 17.3683 0.845812 17.2343C0.990715 17.0967 1.02891 16.9186 1.02891 16.7773H0.228906ZM0.394531 16.6C0.38197 16.6 0.446019 16.5971 0.510382 16.6615C0.574744 16.7259 0.571875 16.7899 0.571875 16.7773H-0.228125C-0.228125 16.9132 -0.193885 17.0886 -0.0553036 17.2272C0.0832776 17.3658 0.258655 17.4 0.394531 17.4V16.6ZM0.571875 16.7773V0.429688H-0.228125V16.7773H0.571875ZM0.571875 0.429688C0.571875 0.43899 0.568486 0.484955 0.529773 0.53399C0.492141 0.581658 0.451828 0.59323 0.450721 0.593525L0.244591 -0.179463C0.126297 -0.147918 -0.00190675 -0.0836115 -0.0981328 0.0382752C-0.195439 0.16153 -0.228125 0.303197 -0.228125 0.429688H0.571875ZM0.426103 0.599264C0.424451 0.599594 0.386045 0.606336 0.334479 0.582897C0.281438 0.558787 0.257978 0.522583 0.25328 0.513859L0.957657 0.134579C0.898272 0.024292 0.804499 -0.0822248 0.665521 -0.145397C0.528017 -0.207899 0.388049 -0.208969 0.26921 -0.185201L0.426103 0.599264ZM0.24759 0.502888L7.98197 15.9951L8.69772 15.6377L0.963348 0.14555L0.24759 0.502888ZM8.73984 15.8164V0.429688H7.93984V15.8164H8.73984ZM8.73984 0.429688C8.73984 0.422511 8.74072 0.489256 8.67394 0.552695C8.611 0.612484 8.55278 0.607031 8.57422 0.607031V-0.192969C8.43941 -0.192969 8.264 -0.161313 8.12294 -0.0273046C7.97803 0.110353 7.93984 0.288426 7.93984 0.429688H8.73984ZM8.57422 0.607031C8.58678 0.607031 8.52273 0.6099 8.45837 0.545538C8.39401 0.481175 8.39688 0.417127 8.39688 0.429688H9.19687C9.19687 0.293811 9.16263 0.118434 9.02405 -0.0201473C8.88547 -0.158729 8.7101 -0.192969 8.57422 -0.192969V0.607031ZM8.39688 0.429688V16.7773H9.19687V0.429688H8.39688ZM8.39688 16.7773C8.39688 16.7691 8.39988 16.7168 8.44564 16.6619C8.49064 16.6079 8.5393 16.5967 8.54265 16.596L8.69954 17.3805C8.82008 17.3564 8.95662 17.2984 9.06022 17.174C9.16458 17.0488 9.19687 16.9027 9.19687 16.7773H8.39688ZM8.44221 16.6305C8.4755 16.6139 8.52074 16.6 8.57422 16.6V17.4C8.65895 17.4 8.73544 17.3783 8.79998 17.3461L8.44221 16.6305ZM11.4688 14.8555L11.8261 14.6758L11.8242 14.672L11.4688 14.8555ZM11.8672 14.6797L12.2227 14.4963L12.2224 14.4957L11.8672 14.6797ZM18.5703 14.6797L18.2151 14.4957L18.2148 14.4963L18.5703 14.6797ZM18.9688 14.8555L18.6133 14.672L18.6122 14.6742L18.9688 14.8555ZM15.2188 16.6C14.3814 16.6 13.6957 16.4322 13.1439 16.1166C12.5946 15.8025 12.1543 15.3285 11.8261 14.6758L11.1114 15.0351C11.502 15.8121 12.046 16.4104 12.7467 16.8111C13.445 17.2104 14.2748 17.4 15.2188 17.4V16.6ZM11.8242 14.672C11.4744 13.9943 11.3062 13.3341 11.3062 12.6875H10.5063C10.5063 13.4784 10.7131 14.2635 11.1133 15.0389L11.8242 14.672ZM11.3062 12.6875V0.441406H10.5063V12.6875H11.3062ZM11.3062 0.441406C11.3062 0.419965 11.3117 0.478189 11.2519 0.541125C11.1885 0.607903 11.1217 0.607031 11.1289 0.607031V-0.192969C10.9876 -0.192969 10.8096 -0.154778 10.6719 -0.00987482C10.5379 0.131186 10.5063 0.306598 10.5063 0.441406H11.3062ZM11.1289 0.607031C11.1454 0.607031 11.0843 0.610877 11.0218 0.548468C10.9594 0.486058 10.9633 0.424939 10.9633 0.441406H11.7633C11.7633 0.301623 11.7281 0.123317 11.5875 -0.0172176C11.447 -0.157752 11.2687 -0.192969 11.1289 -0.192969V0.607031ZM10.9633 0.441406V12.6875H11.7633V0.441406H10.9633ZM10.9633 12.6875C10.9633 13.4359 11.1489 14.1627 11.512 14.8637L12.2224 14.4957C11.9136 13.8998 11.7633 13.2984 11.7633 12.6875H10.9633ZM11.5117 14.863C11.8646 15.5474 12.3572 16.0743 12.9912 16.4268C13.6222 16.7776 14.3704 16.943 15.2188 16.943V16.143C14.4733 16.143 13.8661 15.9978 13.3799 15.7275C12.8967 15.4589 12.5104 15.0542 12.2227 14.4963L11.5117 14.863ZM15.2188 16.943C16.0671 16.943 16.8153 16.7776 17.4463 16.4268C18.0803 16.0743 18.5729 15.5474 18.9258 14.863L18.2148 14.4963C17.9271 15.0542 17.5408 15.4589 17.0576 15.7275C16.5714 15.9978 15.9642 16.143 15.2188 16.143V16.943ZM18.9255 14.8637C19.2886 14.1627 19.4742 13.4359 19.4742 12.6875H18.6742C18.6742 13.2984 18.5239 13.8998 18.2151 14.4957L18.9255 14.8637ZM19.4742 12.6875V0.441406H18.6742V12.6875H19.4742ZM19.4742 0.441406C19.4742 0.419965 19.4797 0.478189 19.4199 0.541125C19.3564 0.607903 19.2897 0.607031 19.2969 0.607031V-0.192969C19.1556 -0.192969 18.9775 -0.154778 18.8399 -0.00987482C18.7059 0.131186 18.6742 0.306598 18.6742 0.441406H19.4742ZM19.2969 0.607031C19.3133 0.607031 19.2522 0.610877 19.1898 0.548468C19.1274 0.486058 19.1313 0.424939 19.1313 0.441406H19.9312C19.9312 0.301623 19.896 0.123317 19.7555 -0.0172176C19.615 -0.157752 19.4367 -0.192969 19.2969 -0.192969V0.607031ZM19.1313 0.441406V12.6875H19.9312V0.441406H19.1313ZM19.1313 12.6875C19.1313 13.3341 18.9631 13.9943 18.6133 14.672L19.3242 15.0389C19.7244 14.2635 19.9312 13.4784 19.9312 12.6875H19.1313ZM18.6122 14.6742C18.2801 15.3277 17.8375 15.8023 17.2878 16.1166C16.7357 16.4323 16.0518 16.6 15.2188 16.6V17.4C16.1591 17.4 16.9869 17.2103 17.6849 16.8111C18.3852 16.4106 18.9309 15.8129 19.3253 15.0367L18.6122 14.6742ZM29.6211 1.17969H30.0211V-0.142593L29.2882 0.957971L29.6211 1.17969ZM25.9531 6.6875L25.6201 6.46569L25.6139 6.4755L25.9531 6.6875ZM25.5781 6.6875L25.9175 6.47541L25.9111 6.46578L25.5781 6.6875ZM21.9102 1.17969L22.2431 0.957971L21.5102 -0.142593V1.17969H21.9102ZM21.6172 0.207031L21.4996 -0.175281L21.491 -0.172661L21.4827 -0.169665L21.6172 0.207031ZM21.8633 0.300781L21.5305 0.522661L21.5306 0.522815L21.8633 0.300781ZM25.7656 6.14844L25.4329 6.37047L25.7656 6.86905L26.0983 6.37047L25.7656 6.14844ZM29.668 0.300781L30.0007 0.522815L30.0008 0.522661L29.668 0.300781ZM29.9141 0.207031L30.0486 -0.169665L30.0402 -0.172661L30.0317 -0.175281L29.9141 0.207031ZM29.8555 16.6C29.834 16.6 29.8923 16.5945 29.9552 16.6543C30.022 16.7178 30.0211 16.7845 30.0211 16.7773H29.2211C29.2211 16.9186 29.2593 17.0967 29.4042 17.2343C29.5452 17.3683 29.7207 17.4 29.8555 17.4V16.6ZM30.0211 16.7773V1.17969H29.2211V16.7773H30.0211ZM29.2882 0.957971L25.6202 6.46578L26.2861 6.90922L29.954 1.4014L29.2882 0.957971ZM25.6139 6.4755C25.6312 6.44791 25.6598 6.41917 25.6981 6.40004C25.7337 6.38224 25.7605 6.38125 25.7656 6.38125V7.18125C25.9626 7.18125 26.167 7.10006 26.2923 6.8995L25.6139 6.4755ZM25.7656 6.38125C25.7707 6.38125 25.7976 6.38224 25.8332 6.40004C25.8714 6.41917 25.9001 6.44791 25.9173 6.4755L25.2389 6.8995C25.3643 7.10006 25.5686 7.18125 25.7656 7.18125V6.38125ZM25.9111 6.46578L22.2431 0.957971L21.5772 1.4014L25.2452 6.90922L25.9111 6.46578ZM21.5102 1.17969V16.7773H22.3102V1.17969H21.5102ZM21.5102 16.7773C21.5102 16.7845 21.5093 16.7178 21.5761 16.6543C21.639 16.5945 21.6972 16.6 21.6758 16.6V17.4C21.8106 17.4 21.986 17.3683 22.1271 17.2343C22.272 17.0967 22.3102 16.9186 22.3102 16.7773H21.5102ZM21.6758 16.6C21.6632 16.6 21.7273 16.5971 21.7916 16.6615C21.856 16.7259 21.8531 16.7899 21.8531 16.7773H21.0531C21.0531 16.9132 21.0874 17.0886 21.2259 17.2272C21.3645 17.3658 21.5399 17.4 21.6758 17.4V16.6ZM21.8531 16.7773V0.429688H21.0531V16.7773H21.8531ZM21.8531 0.429688C21.8531 0.443996 21.8484 0.48552 21.8162 0.529272C21.7853 0.571104 21.7525 0.58344 21.7517 0.583728L21.4827 -0.169665C21.3725 -0.130315 21.2576 -0.0613379 21.1721 0.0547128C21.0852 0.172683 21.0531 0.306004 21.0531 0.429688H21.8531ZM21.7348 0.589343C21.7189 0.594247 21.6712 0.603197 21.6125 0.580826C21.5563 0.559426 21.5323 0.525365 21.5305 0.522661L22.1961 0.0789013C22.1318 -0.0175524 22.0355 -0.114114 21.8973 -0.166764C21.7565 -0.220384 21.6171 -0.211434 21.4996 -0.175281L21.7348 0.589343ZM21.5306 0.522815L25.4329 6.37047L26.0983 5.9264L22.196 0.0787473L21.5306 0.522815ZM26.0983 6.37047L30.0007 0.522815L29.3353 0.0787473L25.4329 5.9264L26.0983 6.37047ZM30.0008 0.522661C29.999 0.525365 29.9749 0.559426 29.9188 0.580826C29.86 0.603197 29.8124 0.594247 29.7964 0.589343L30.0317 -0.175281C29.9142 -0.211434 29.7747 -0.220384 29.634 -0.166764C29.4958 -0.114114 29.3995 -0.0175524 29.3351 0.0789013L30.0008 0.522661ZM29.7795 0.583728C29.7787 0.58344 29.7459 0.571104 29.7151 0.529272C29.6828 0.48552 29.6781 0.443996 29.6781 0.429688H30.4781C30.4781 0.306004 30.4461 0.172683 30.3591 0.0547128C30.2736 -0.0613379 30.1588 -0.130315 30.0486 -0.169665L29.7795 0.583728ZM29.6781 0.429688V16.7773H30.4781V0.429688H29.6781ZM29.6781 16.7773C29.6781 16.7899 29.6753 16.7259 29.7396 16.6615C29.804 16.5971 29.868 16.6 29.8555 16.6V17.4C29.9913 17.4 30.1667 17.3658 30.3053 17.2272C30.4439 17.0886 30.4781 16.9132 30.4781 16.7773H29.6781ZM32.668 8.375H32.268V8.775H32.668V8.375ZM36.5234 8.375V8.77503L36.528 8.77497L36.5234 8.375ZM38.5156 7.87109L38.6962 8.22802L38.6998 8.22616L38.5156 7.87109ZM38.5156 1.14453L38.6998 0.789445L38.6962 0.787624L38.5156 1.14453ZM32.668 0.652344V0.252344H32.268V0.652344H32.668ZM32.668 16.543H32.268V16.943H32.668V16.543ZM38.5156 16.0391L38.3332 15.6831L38.3316 15.6839L38.5156 16.0391ZM38.5156 9.32422L38.6998 8.96915L38.6996 8.96905L38.5156 9.32422ZM32.668 8.82031V8.42031H32.268V8.82031H32.668ZM38.7031 0.746094L38.8843 0.389492L38.882 0.388323L38.7031 0.746094ZM37.8711 8.59766L37.7564 8.21444L36.4733 8.59838L37.7568 8.98099L37.8711 8.59766ZM39.8281 9.76953L39.5327 10.0392L39.5346 10.0412L39.8281 9.76953ZM38.7031 16.4375L38.5219 16.0809L38.5212 16.0813L38.7031 16.4375ZM32.668 8.775H36.5234V7.975H32.668V8.775ZM36.528 8.77497C37.2731 8.76641 37.997 8.5818 38.6962 8.228L38.335 7.51419C37.7373 7.81664 37.1332 7.96797 36.5188 7.97503L36.528 8.77497ZM38.6998 8.22616C39.3874 7.8695 39.9169 7.37434 40.2713 6.73872C40.6241 6.10587 40.7906 5.3566 40.7906 4.50781H39.9906C39.9906 5.25278 39.8447 5.86093 39.5725 6.34917C39.3018 6.83465 38.8939 7.22425 38.3314 7.51603L38.6998 8.22616ZM40.7906 4.50781C40.7906 3.65903 40.6241 2.90976 40.2713 2.27691C39.9169 1.64129 39.3874 1.14613 38.6998 0.789463L38.3314 1.4996C38.8939 1.79137 39.3018 2.18098 39.5725 2.66645C39.8447 3.1547 39.9906 3.76285 39.9906 4.50781H40.7906ZM38.6962 0.787624C37.9958 0.433177 37.2702 0.252344 36.5234 0.252344V1.05234C37.1361 1.05234 37.7386 1.19964 38.335 1.50144L38.6962 0.787624ZM36.5234 0.252344H32.668V1.05234H36.5234V0.252344ZM32.268 0.652344V8.375H33.068V0.652344H32.268ZM32.668 16.943H36.5234V16.143H32.668V16.943ZM36.5234 16.943C37.2719 16.943 37.9987 16.7574 38.6996 16.3942L38.3316 15.6839C37.7357 15.9926 37.1344 16.143 36.5234 16.143V16.943ZM38.6981 16.395C39.3861 16.0424 39.9162 15.5501 40.271 14.916C40.6241 14.2848 40.7906 13.5362 40.7906 12.6875H39.9906C39.9906 13.4325 39.8447 14.0394 39.5728 14.5254C39.3025 15.0085 38.8951 15.3951 38.3332 15.6831L38.6981 16.395ZM40.7906 12.6875C40.7906 11.8387 40.6241 11.0894 40.2713 10.4566C39.9169 9.82098 39.3874 9.32581 38.6998 8.96915L38.3314 9.67929C38.8939 9.97106 39.3018 10.3607 39.5725 10.8461C39.8447 11.3344 39.9906 11.9425 39.9906 12.6875H40.7906ZM38.6996 8.96905C37.9987 8.6059 37.2719 8.42031 36.5234 8.42031V9.22031C37.1344 9.22031 37.7357 9.37066 38.3316 9.67939L38.6996 8.96905ZM36.5234 8.42031H32.668V9.22031H36.5234V8.42031ZM32.268 8.82031V16.543H33.068V8.82031H32.268ZM32.4336 16.6C32.421 16.6 32.4851 16.5971 32.5494 16.6615C32.6138 16.7259 32.6109 16.7899 32.6109 16.7773H31.8109C31.8109 16.9132 31.8452 17.0886 31.9838 17.2272C32.1223 17.3658 32.2977 17.4 32.4336 17.4V16.6ZM32.6109 16.7773V0.417969H31.8109V16.7773H32.6109ZM32.6109 0.417969C32.6109 0.405408 32.6138 0.469457 32.5494 0.533819C32.4851 0.598182 32.421 0.595313 32.4336 0.595313V-0.204688C32.2977 -0.204688 32.1223 -0.170447 31.9838 -0.0318661C31.8452 0.106715 31.8109 0.282092 31.8109 0.417969H32.6109ZM32.4336 0.595313H36.5234V-0.204688H32.4336V0.595313ZM36.5234 0.595313C37.1718 0.595313 37.8375 0.760477 38.5242 1.10386L38.882 0.388323C38.1 -0.00266457 37.3126 -0.204688 36.5234 -0.204688V0.595313ZM38.5219 1.10269C39.1751 1.43462 39.6496 1.87798 39.964 2.42955C40.2799 2.98354 40.4477 3.67054 40.4477 4.50781H41.2477C41.2477 3.56383 41.058 2.73326 40.659 2.03334C40.2586 1.33101 39.6609 0.784133 38.8843 0.3895L38.5219 1.10269ZM40.4477 4.50781C40.4477 5.51221 40.2146 6.29749 39.7801 6.8945C39.3464 7.49042 38.6843 7.9368 37.7564 8.21444L37.9858 8.98087C39.0422 8.66476 39.8684 8.13263 40.4269 7.36526C40.9846 6.59899 41.2477 5.63622 41.2477 4.50781H40.4477ZM37.7568 8.98099C38.5112 9.20584 39.0969 9.56194 39.5327 10.0392L40.1235 9.49982C39.5749 8.899 38.856 8.47385 37.9854 8.21432L37.7568 8.98099ZM39.5346 10.0412C40.132 10.6868 40.4477 11.555 40.4477 12.6875H41.2477C41.2477 11.3982 40.8836 10.321 40.1217 9.49783L39.5346 10.0412ZM40.4477 12.6875C40.4477 13.5206 40.28 14.2045 39.9643 14.7565C39.6499 15.3062 39.1754 15.7488 38.5219 16.0809L38.8843 16.7941C39.6606 16.3996 40.2583 15.854 40.6588 15.1537C41.0579 14.4557 41.2477 13.6279 41.2477 12.6875H40.4477ZM38.5212 16.0813C37.8348 16.4318 37.1702 16.6 36.5234 16.6V17.4C37.3142 17.4 38.1027 17.1932 38.885 16.7937L38.5212 16.0813ZM36.5234 16.6H32.4336V17.4H36.5234V16.6ZM43.4258 0.652344V0.252344H43.0258V0.652344H43.4258ZM43.4258 8.375H43.0258V8.775H43.4258V8.375ZM43.4258 8.82031V8.42031H43.0258V8.82031H43.4258ZM43.4258 16.543H43.0258V16.943H43.4258V16.543ZM43.1914 16.6C43.1788 16.6 43.2429 16.5971 43.3073 16.6615C43.3716 16.7259 43.3688 16.7899 43.3688 16.7773H42.5687C42.5687 16.9132 42.603 17.0886 42.7416 17.2272C42.8802 17.3658 43.0555 17.4 43.1914 17.4V16.6ZM43.3688 16.7773V0.417969H42.5687V16.7773H43.3688ZM43.3688 0.417969C43.3688 0.405408 43.3716 0.469457 43.3073 0.533819C43.2429 0.598182 43.1788 0.595313 43.1914 0.595313V-0.204688C43.0555 -0.204688 42.8802 -0.170447 42.7416 -0.0318661C42.603 0.106715 42.5687 0.282092 42.5687 0.417969H43.3688ZM43.1914 0.595313H51.3711V-0.204688H43.1914V0.595313ZM51.3711 0.595313C51.3837 0.595313 51.3196 0.598182 51.2552 0.533819C51.1909 0.469457 51.1937 0.405408 51.1937 0.417969H51.9938C51.9938 0.282092 51.9595 0.106715 51.8209 -0.0318661C51.6823 -0.170447 51.507 -0.204688 51.3711 -0.204688V0.595313ZM51.1937 0.417969C51.1937 0.43941 51.1883 0.381186 51.2481 0.31825C51.3115 0.251472 51.3783 0.252344 51.3711 0.252344V1.05234C51.5124 1.05234 51.6904 1.01415 51.8281 0.86925C51.9621 0.728189 51.9938 0.552777 51.9938 0.417969H51.1937ZM51.3711 0.252344H43.4258V1.05234H51.3711V0.252344ZM43.0258 0.652344V8.375H43.8258V0.652344H43.0258ZM43.4258 8.775H47.2812V7.975H43.4258V8.775ZM47.2812 8.775C47.3027 8.775 47.2445 8.78045 47.1815 8.72066C47.1148 8.65722 47.1156 8.59048 47.1156 8.59766H47.9156C47.9156 8.4564 47.8774 8.27832 47.7325 8.14066C47.5915 8.00666 47.4161 7.975 47.2812 7.975V8.775ZM47.1156 8.59766C47.1156 8.60483 47.1148 8.53809 47.1815 8.47465C47.2445 8.41486 47.3027 8.42031 47.2812 8.42031V9.22031C47.4161 9.22031 47.5915 9.18866 47.7325 9.05465C47.8774 8.91699 47.9156 8.73892 47.9156 8.59766H47.1156ZM47.2812 8.42031H43.4258V9.22031H47.2812V8.42031ZM43.0258 8.82031V16.543H43.8258V8.82031H43.0258ZM43.4258 16.943H51.3711V16.143H43.4258V16.943ZM51.3711 16.943C51.3783 16.943 51.3115 16.9438 51.2481 16.8771C51.1883 16.8141 51.1937 16.7559 51.1937 16.7773H51.9938C51.9938 16.6425 51.9621 16.4671 51.8281 16.3261C51.6904 16.1812 51.5124 16.143 51.3711 16.143V16.943ZM51.1937 16.7773C51.1937 16.7899 51.1909 16.7259 51.2552 16.6615C51.3196 16.5971 51.3837 16.6 51.3711 16.6V17.4C51.507 17.4 51.6823 17.3658 51.8209 17.2272C51.9595 17.0886 51.9938 16.9132 51.9938 16.7773H51.1937ZM51.3711 16.6H43.1914V17.4H51.3711V16.6ZM54.1602 8.36328H53.7602V8.76328H54.1602V8.36328ZM60.0078 7.87109L60.1884 8.22802L60.192 8.22616L60.0078 7.87109ZM60.0078 1.14453L60.192 0.789463L60.1918 0.789365L60.0078 1.14453ZM54.1602 0.640625V0.240625H53.7602V0.640625H54.1602ZM54.1602 9.14844L54.443 8.86559L53.7602 8.18275V9.14844H54.1602ZM60.1953 0.746094L60.3765 0.389492L60.3742 0.388323L60.1953 0.746094ZM60.1953 8.26953L60.3742 8.62731L60.3765 8.62613L60.1953 8.26953ZM54.4766 8.82031V8.42031H53.5109L54.1937 9.10316L54.4766 8.82031ZM62.2695 16.9297L61.9974 16.6366L61.9919 16.6416L61.9867 16.6468L62.2695 16.9297ZM54.1602 8.76328H58.0156V7.96328H54.1602V8.76328ZM58.0156 8.76328C58.7624 8.76328 59.488 8.58245 60.1884 8.228L59.8272 7.51419C59.2308 7.81599 58.6283 7.96328 58.0156 7.96328V8.76328ZM60.192 8.22616C60.8795 7.8695 61.4091 7.37434 61.7634 6.73872C62.1162 6.10587 62.2828 5.3566 62.2828 4.50781H61.4828C61.4828 5.25278 61.3369 5.86093 61.0647 6.34917C60.794 6.83465 60.3861 7.22425 59.8236 7.51603L60.192 8.22616ZM62.2828 4.50781C62.2828 3.65903 62.1162 2.90976 61.7634 2.27691C61.4091 1.64129 60.8795 1.14613 60.192 0.789463L59.8236 1.4996C60.3861 1.79137 60.794 2.18098 61.0647 2.66645C61.3369 3.1547 61.4828 3.76285 61.4828 4.50781H62.2828ZM60.1918 0.789365C59.4909 0.426217 58.7641 0.240625 58.0156 0.240625V1.04063C58.6266 1.04063 59.2279 1.19097 59.8238 1.4997L60.1918 0.789365ZM58.0156 0.240625H54.1602V1.04063H58.0156V0.240625ZM53.7602 0.640625V8.36328H54.5602V0.640625H53.7602ZM62.1055 16.6C62.1256 16.6 62.1502 16.6041 62.1751 16.6148C62.1996 16.6253 62.2158 16.6384 62.2243 16.6468L61.6586 17.2125C61.7754 17.3294 61.9299 17.4 62.1055 17.4V16.6ZM62.2243 16.6468L54.443 8.86559L53.8773 9.43128L61.6586 17.2125L62.2243 16.6468ZM53.7602 9.14844V16.7773H54.5602V9.14844H53.7602ZM53.7602 16.7773C53.7602 16.7845 53.7593 16.7178 53.8261 16.6543C53.889 16.5945 53.9472 16.6 53.9258 16.6V17.4C54.0606 17.4 54.236 17.3683 54.3771 17.2343C54.522 17.0967 54.5602 16.9186 54.5602 16.7773H53.7602ZM53.9258 16.6C53.9132 16.6 53.9773 16.5971 54.0416 16.6615C54.106 16.7259 54.1031 16.7899 54.1031 16.7773H53.3031C53.3031 16.9132 53.3374 17.0886 53.4759 17.2272C53.6145 17.3658 53.7899 17.4 53.9258 17.4V16.6ZM54.1031 16.7773V0.417969H53.3031V16.7773H54.1031ZM54.1031 0.417969C54.1031 0.405408 54.106 0.469457 54.0416 0.533819C53.9773 0.598182 53.9132 0.595313 53.9258 0.595313V-0.204688C53.7899 -0.204688 53.6145 -0.170447 53.4759 -0.0318661C53.3374 0.106715 53.3031 0.282092 53.3031 0.417969H54.1031ZM53.9258 0.595313H58.0156V-0.204688H53.9258V0.595313ZM58.0156 0.595313C58.664 0.595313 59.3297 0.760477 60.0164 1.10386L60.3742 0.388323C59.5922 -0.00266457 58.8048 -0.204688 58.0156 -0.204688V0.595313ZM60.0141 1.10269C60.6672 1.43462 61.1418 1.87798 61.4562 2.42955C61.772 2.98354 61.9398 3.67054 61.9398 4.50781H62.7398C62.7398 3.56383 62.5502 2.73326 62.1512 2.03334C61.7508 1.33101 61.1531 0.784133 60.3765 0.3895L60.0141 1.10269ZM61.9398 4.50781C61.9398 5.34508 61.772 6.03209 61.4562 6.58607C61.1418 7.13765 60.6672 7.58101 60.0141 7.91294L60.3765 8.62613C61.1531 8.23149 61.7508 7.68462 62.1512 6.98229C62.5502 6.28237 62.7398 5.45179 62.7398 4.50781H61.9398ZM60.0164 7.91176C59.3297 8.25515 58.664 8.42031 58.0156 8.42031V9.22031C58.8048 9.22031 59.5922 9.01829 60.3742 8.6273L60.0164 7.91176ZM58.0156 8.42031H54.4766V9.22031H58.0156V8.42031ZM54.1937 9.10316L61.9867 16.8961L62.5524 16.3304L54.7594 8.53747L54.1937 9.10316ZM61.9867 16.8961C62.0013 16.9107 61.9516 16.8686 61.9516 16.7744C61.9516 16.6762 62.0051 16.6293 61.9974 16.6366L62.5417 17.2228C62.6433 17.1285 62.7516 16.9781 62.7516 16.7744C62.7516 16.5748 62.6472 16.4252 62.5524 16.3304L61.9867 16.8961ZM61.9867 16.6468C61.9951 16.6384 62.0113 16.6253 62.0358 16.6148C62.0607 16.6041 62.0853 16.6 62.1055 16.6V17.4C62.281 17.4 62.4355 17.3294 62.5524 17.2125L61.9867 16.6468ZM70.7891 16.0391L70.6066 15.6831L70.6051 15.6839L70.7891 16.0391ZM70.7891 9.32422L70.9733 8.96913L70.9697 8.96731L70.7891 9.32422ZM68.7969 8.82031L68.8015 8.42031H68.7969V8.82031ZM66.6289 8.26953L66.4477 8.62613L66.4485 8.62653L66.6289 8.26953ZM66.6289 0.757812L66.8101 1.11441L66.8124 1.11326L66.6289 0.757812ZM66.8047 1.15625L66.988 1.51176L66.9887 1.51142L66.8047 1.15625ZM66.8047 7.87109L66.6196 8.22572L66.6241 8.228L66.8047 7.87109ZM68.7969 8.375L68.7923 8.775H68.7969V8.375ZM70.9766 8.92578L71.1586 8.56958L71.1554 8.56801L70.9766 8.92578ZM70.9766 16.4375L70.7961 16.0805L70.7947 16.0813L70.9766 16.4375ZM64.707 16.6C64.6945 16.6 64.7585 16.5971 64.8229 16.6615C64.8872 16.7259 64.8844 16.7899 64.8844 16.7773H64.0844C64.0844 16.9132 64.1186 17.0886 64.2572 17.2272C64.3958 17.3658 64.5712 17.4 64.707 17.4V16.6ZM64.8844 16.7773C64.8844 16.7559 64.8898 16.8141 64.83 16.8771C64.7666 16.9438 64.6999 16.943 64.707 16.943V16.143C64.5658 16.143 64.3877 16.1812 64.25 16.3261C64.116 16.4671 64.0844 16.6425 64.0844 16.7773H64.8844ZM64.707 16.943H68.7969V16.143H64.707V16.943ZM68.7969 16.943C69.5453 16.943 70.2721 16.7574 70.9731 16.3942L70.6051 15.6839C70.0091 15.9926 69.4078 16.143 68.7969 16.143V16.943ZM70.9715 16.395C71.6596 16.0424 72.1897 15.5501 72.5444 14.916C72.8975 14.2848 73.0641 13.5362 73.0641 12.6875H72.2641C72.2641 13.4325 72.1181 14.0394 71.8462 14.5254C71.576 15.0085 71.1686 15.3951 70.6066 15.6831L70.9715 16.395ZM73.0641 12.6875C73.0641 11.8387 72.8975 11.0894 72.5447 10.4566C72.1903 9.82098 71.6608 9.32581 70.9733 8.96915L70.6049 9.67929C71.1673 9.97106 71.5753 10.3607 71.8459 10.8461C72.1181 11.3344 72.2641 11.9425 72.2641 12.6875H73.0641ZM70.9697 8.96731C70.2705 8.61351 69.5465 8.4289 68.8015 8.42034L68.7923 9.22029C69.4066 9.22735 70.0108 9.37868 70.6085 9.68113L70.9697 8.96731ZM68.7969 8.42031C68.1487 8.42031 67.4874 8.25523 66.8093 7.91253L66.4485 8.62653C67.2235 9.01821 68.0076 9.22031 68.7969 9.22031V8.42031ZM66.8101 7.91294C66.157 7.58101 65.6825 7.13765 65.368 6.58607C65.0522 6.03209 64.8844 5.34508 64.8844 4.50781H64.0844C64.0844 5.45179 64.274 6.28237 64.673 6.98229C65.0734 7.68462 65.6712 8.23149 66.4477 8.62613L66.8101 7.91294ZM64.8844 4.50781C64.8844 3.67475 65.0521 2.99082 65.3677 2.43881C65.6821 1.88911 66.1567 1.4465 66.8101 1.11441L66.4477 0.401218C65.6715 0.795687 65.0738 1.34136 64.6733 2.04166C64.2741 2.73965 64.0844 3.56744 64.0844 4.50781H64.8844ZM66.8124 1.11326C67.4901 0.763476 68.1503 0.595313 68.7969 0.595313V-0.204688C68.006 -0.204688 67.2209 0.00214863 66.4454 0.402364L66.8124 1.11326ZM68.7969 0.595313H72.8867V-0.204688H68.7969V0.595313ZM72.8867 0.595313C72.8939 0.595313 72.8271 0.596184 72.7637 0.529406C72.7039 0.46647 72.7094 0.408246 72.7094 0.429688H73.5094C73.5094 0.294879 73.4777 0.119468 73.3437 -0.0215936C73.2061 -0.166496 73.028 -0.204688 72.8867 -0.204688V0.595313ZM72.7094 0.429688C72.7094 0.442248 72.7065 0.3782 72.7709 0.313837C72.8352 0.249475 72.8993 0.252344 72.8867 0.252344V1.05234C73.0226 1.05234 73.198 1.0181 73.3366 0.879522C73.4751 0.740941 73.5094 0.565564 73.5094 0.429688H72.7094ZM72.8867 0.252344H68.7969V1.05234H72.8867V0.252344ZM68.7969 0.252344C68.0484 0.252344 67.3216 0.437936 66.6207 0.801084L66.9887 1.51142C67.5846 1.20269 68.1859 1.05234 68.7969 1.05234V0.252344ZM66.6213 0.800743C65.937 1.15368 65.4101 1.6463 65.0576 2.28025C64.7068 2.91125 64.5414 3.65947 64.5414 4.50781H65.3414C65.3414 3.76241 65.4865 3.15516 65.7568 2.66897C66.0255 2.18573 66.4302 1.79944 66.988 1.51176L66.6213 0.800743ZM64.5414 4.50781C64.5414 5.35622 64.7068 6.10514 65.0573 6.73779C65.4094 7.37329 65.9358 7.86872 66.6196 8.22569L66.9898 7.5165C66.4314 7.22503 66.0261 6.8357 65.7571 6.3501C65.4865 5.86166 65.3414 5.25316 65.3414 4.50781H64.5414ZM66.6241 8.228C67.3233 8.5818 68.0472 8.76641 68.7923 8.77497L68.8015 7.97503C68.1872 7.96797 67.583 7.81664 66.9853 7.51419L66.6241 8.228ZM68.7969 8.775C69.4452 8.775 70.1109 8.94016 70.7977 9.28355L71.1554 8.56801C70.3735 8.17702 69.586 7.975 68.7969 7.975V8.775ZM70.7946 9.28197C71.4436 9.61364 71.9154 10.0568 72.2282 10.6084C72.5424 11.1626 72.7094 11.8499 72.7094 12.6875H73.5094C73.5094 11.7439 73.3209 10.9136 72.9241 10.2138C72.526 9.5116 71.9314 8.96449 71.1586 8.56959L70.7946 9.28197ZM72.7094 12.6875C72.7094 13.5252 72.5424 14.2113 72.2285 14.7632C71.916 15.3125 71.4447 15.7526 70.7961 16.0805L71.157 16.7945C71.9303 16.4036 72.5254 15.8593 72.9239 15.1587C73.3209 14.4606 73.5094 13.6311 73.5094 12.6875H72.7094ZM70.7947 16.0813C70.1083 16.4318 69.4436 16.6 68.7969 16.6V17.4C69.5876 17.4 70.3761 17.1932 71.1585 16.7937L70.7947 16.0813ZM68.7969 16.6H64.707V17.4H68.7969V16.6ZM75.7344 14.8555L76.0918 14.6758L76.0898 14.672L75.7344 14.8555ZM75.7344 2.33984L76.0898 2.52331L76.0918 2.51951L75.7344 2.33984ZM76.1328 2.51562L76.488 2.69963L76.4883 2.69897L76.1328 2.51562ZM76.1328 14.6797L76.4883 14.4963L76.488 14.4957L76.1328 14.6797ZM79.4844 16.6C78.647 16.6 77.9613 16.4322 77.4095 16.1166C76.8602 15.8025 76.4199 15.3285 76.0918 14.6758L75.377 15.0351C75.7676 15.8121 76.3116 16.4104 77.0124 16.8111C77.7106 17.2104 78.5405 17.4 79.4844 17.4V16.6ZM76.0898 14.672C75.74 13.9943 75.5719 13.3341 75.5719 12.6875H74.7719C74.7719 13.4784 74.9787 14.2635 75.3789 15.0389L76.0898 14.672ZM75.5719 12.6875V4.50781H74.7719V12.6875H75.5719ZM75.5719 4.50781C75.5719 3.86119 75.74 3.20101 76.0898 2.5233L75.3789 2.15639C74.9787 2.9318 74.7719 3.71693 74.7719 4.50781H75.5719ZM76.0918 2.51951C76.4199 1.8668 76.8602 1.39279 77.4095 1.07868C77.9613 0.763135 78.647 0.595313 79.4844 0.595313V-0.204688C78.5405 -0.204688 77.7106 -0.0150886 77.0124 0.384215C76.3116 0.784945 75.7676 1.3832 75.377 2.16018L76.0918 2.51951ZM79.4844 0.595313H83.5625V-0.204688H79.4844V0.595313ZM83.5625 0.595313C83.5839 0.595313 83.5257 0.600766 83.4628 0.540977C83.396 0.477538 83.3969 0.410792 83.3969 0.417969H84.1969C84.1969 0.276708 84.1587 0.0986342 84.0138 -0.0390234C83.8727 -0.173031 83.6973 -0.204688 83.5625 -0.204688V0.595313ZM83.3969 0.417969C83.3969 0.43941 83.3914 0.381186 83.4512 0.31825C83.5146 0.251472 83.5814 0.252344 83.5742 0.252344V1.05234C83.7155 1.05234 83.8936 1.01415 84.0312 0.86925C84.1652 0.728189 84.1969 0.552777 84.1969 0.417969H83.3969ZM83.5742 0.252344H79.4844V1.05234H83.5742V0.252344ZM79.4844 0.252344C78.636 0.252344 77.8878 0.417758 77.2568 0.768559C76.6229 1.121 76.1302 1.64792 75.7773 2.33228L76.4883 2.69897C76.776 2.14114 77.1623 1.73642 77.6455 1.46777C78.1317 1.19748 78.739 1.05234 79.4844 1.05234V0.252344ZM75.7776 2.33162C75.4145 3.03258 75.2289 3.75937 75.2289 4.50781H76.0289C76.0289 3.89688 76.1793 3.29554 76.488 2.69963L75.7776 2.33162ZM75.2289 4.50781V12.6875H76.0289V4.50781H75.2289ZM75.2289 12.6875C75.2289 13.4359 75.4145 14.1627 75.7776 14.8637L76.488 14.4957C76.1793 13.8998 76.0289 13.2984 76.0289 12.6875H75.2289ZM75.7773 14.863C76.1302 15.5474 76.6229 16.0743 77.2568 16.4268C77.8878 16.7776 78.636 16.943 79.4844 16.943V16.143C78.739 16.143 78.1317 15.9978 77.6455 15.7275C77.1623 15.4589 76.776 15.0542 76.4883 14.4963L75.7773 14.863ZM79.4844 16.943H83.5625V16.143H79.4844V16.943ZM83.5625 16.943C83.579 16.943 83.5178 16.9468 83.4554 16.8844C83.393 16.822 83.3969 16.7609 83.3969 16.7773H84.1969C84.1969 16.6376 84.1617 16.4593 84.0211 16.3187C83.8806 16.1782 83.7023 16.143 83.5625 16.143V16.943ZM83.3969 16.7773C83.3969 16.7899 83.394 16.7259 83.4584 16.6615C83.5227 16.5971 83.5868 16.6 83.5742 16.6V17.4C83.7101 17.4 83.8855 17.3658 84.0241 17.2272C84.1626 17.0886 84.1969 16.9132 84.1969 16.7773H83.3969ZM83.5742 16.6H79.4844V17.4H83.5742V16.6ZM86.8672 2.51562L87.2224 2.69963L87.2227 2.69897L86.8672 2.51562ZM86.8672 14.6797L87.2227 14.4963L87.2224 14.4957L86.8672 14.6797ZM93.582 14.6797L93.9367 14.8648L93.9389 14.8603L93.582 14.6797ZM94.0859 12.6875L94.4859 12.6921V12.6875H94.0859ZM94.0859 4.50781H94.486L94.4859 4.50321L94.0859 4.50781ZM93.582 2.51562L93.939 2.33501L93.9366 2.33052L93.582 2.51562ZM86.4688 14.8555L86.8261 14.6758L86.8242 14.672L86.4688 14.8555ZM86.4688 2.33984L86.8242 2.52331L86.8261 2.51951L86.4688 2.33984ZM93.9805 2.33984L94.3375 2.15942L94.3371 2.15862L93.9805 2.33984ZM93.9805 14.8555L94.3371 15.0367L94.3375 15.0359L93.9805 14.8555ZM90.2188 0.252344C89.3704 0.252344 88.6222 0.417758 87.9912 0.768559C87.3572 1.121 86.8646 1.64792 86.5117 2.33228L87.2227 2.69897C87.5104 2.14114 87.8967 1.73642 88.3799 1.46777C88.8661 1.19748 89.4733 1.05234 90.2188 1.05234V0.252344ZM86.512 2.33162C86.1489 3.03258 85.9633 3.75937 85.9633 4.50781H86.7633C86.7633 3.89688 86.9136 3.29554 87.2224 2.69963L86.512 2.33162ZM85.9633 4.50781V12.6875H86.7633V4.50781H85.9633ZM85.9633 12.6875C85.9633 13.4359 86.1489 14.1627 86.512 14.8637L87.2224 14.4957C86.9136 13.8998 86.7633 13.2984 86.7633 12.6875H85.9633ZM86.5117 14.863C86.8646 15.5474 87.3572 16.0743 87.9912 16.4268C88.6222 16.7776 89.3704 16.943 90.2188 16.943V16.143C89.4733 16.143 88.8661 15.9978 88.3799 15.7275C87.8967 15.4589 87.5104 15.0542 87.2227 14.4963L86.5117 14.863ZM90.2188 16.943C91.0672 16.943 91.8161 16.7775 92.4487 16.427C93.0842 16.075 93.5797 15.5486 93.9366 14.8648L93.2274 14.4946C92.936 15.0529 92.5466 15.4582 92.061 15.7273C91.5726 15.9979 90.9641 16.143 90.2188 16.143V16.943ZM93.9389 14.8603C94.2927 14.1611 94.4773 13.4372 94.4859 12.6921L93.686 12.6829C93.6789 13.2972 93.5276 13.9014 93.2251 14.4991L93.9389 14.8603ZM94.4859 12.6875V4.50781H93.6859V12.6875H94.4859ZM94.4859 4.50321C94.4773 3.75815 94.2927 3.0342 93.9389 2.33502L93.2251 2.69623C93.5276 3.29392 93.6789 3.8981 93.686 4.51241L94.4859 4.50321ZM93.9366 2.33052C93.5797 1.64669 93.0842 1.12034 92.4487 0.768271C91.8161 0.417779 91.0672 0.252344 90.2188 0.252344V1.05234C90.9641 1.05234 91.5726 1.19746 92.061 1.46806C92.5466 1.73708 92.936 2.14237 93.2274 2.70073L93.9366 2.33052ZM90.2188 16.6C89.3814 16.6 88.6956 16.4322 88.1439 16.1166C87.5946 15.8025 87.1543 15.3285 86.8261 14.6758L86.1114 15.0351C86.502 15.8121 87.046 16.4104 87.7467 16.8111C88.445 17.2104 89.2748 17.4 90.2188 17.4V16.6ZM86.8242 14.672C86.4744 13.9943 86.3063 13.3341 86.3063 12.6875H85.5062C85.5062 13.4784 85.7131 14.2635 86.1133 15.0389L86.8242 14.672ZM86.3063 12.6875V4.50781H85.5062V12.6875H86.3063ZM86.3063 4.50781C86.3063 3.86119 86.4744 3.20101 86.8242 2.5233L86.1133 2.15639C85.7131 2.9318 85.5062 3.71693 85.5062 4.50781H86.3063ZM86.8261 2.51951C87.1543 1.8668 87.5946 1.39279 88.1439 1.07868C88.6956 0.763135 89.3814 0.595313 90.2188 0.595313V-0.204688C89.2748 -0.204688 88.445 -0.0150886 87.7467 0.384215C87.046 0.784945 86.502 1.3832 86.1114 2.16018L86.8261 2.51951ZM90.2188 0.595313C91.056 0.595313 91.743 0.763117 92.297 1.07894C92.8486 1.39339 93.2919 1.86791 93.6239 2.52106L94.3371 2.15862C93.9424 1.38209 93.3956 0.784343 92.6932 0.383948C91.9933 -0.01507 91.1627 -0.204688 90.2188 -0.204688V0.595313ZM93.6235 2.52026C93.9662 3.19836 94.1312 3.85961 94.1312 4.50781H94.9313C94.9313 3.71851 94.7291 2.93445 94.3375 2.15942L93.6235 2.52026ZM94.1312 4.50781V12.6875H94.9313V4.50781H94.1312ZM94.1312 12.6875C94.1312 13.3357 93.9662 13.997 93.6235 14.675L94.3375 15.0359C94.7291 14.2609 94.9313 13.4768 94.9313 12.6875H94.1312ZM93.6239 14.6742C93.2919 15.3274 92.8486 15.8019 92.297 16.1164C91.743 16.4322 91.056 16.6 90.2188 16.6V17.4C91.1627 17.4 91.9933 17.2104 92.6932 16.8114C93.3956 16.411 93.9424 15.8132 94.3371 15.0367L93.6239 14.6742ZM97.1211 8.375H96.7211V8.775H97.1211V8.375ZM100.977 8.375V8.77503L100.981 8.77497L100.977 8.375ZM102.969 7.87109L103.149 8.22802L103.153 8.22616L102.969 7.87109ZM102.969 1.15625L102.785 1.51142L102.786 1.51222L102.969 1.15625ZM97.1211 0.652344V0.252344H96.7211V0.652344H97.1211ZM103.156 0.757812L102.974 1.11406L102.976 1.1148L103.156 0.757812ZM103.156 8.26953L103.335 8.62732L103.338 8.62572L103.156 8.26953ZM97.1211 8.82031V8.42031H96.7211V8.82031H97.1211ZM97.1211 8.775H100.977V7.975H97.1211V8.775ZM100.981 8.77497C101.726 8.76641 102.45 8.5818 103.149 8.228L102.788 7.51419C102.19 7.81664 101.586 7.96797 100.972 7.97503L100.981 8.77497ZM103.153 8.22616C103.84 7.8695 104.37 7.37434 104.724 6.73872C105.077 6.10587 105.244 5.3566 105.244 4.50781H104.444C104.444 5.25278 104.298 5.86093 104.026 6.34917C103.755 6.83465 103.347 7.22425 102.785 7.51603L103.153 8.22616ZM105.244 4.50781C105.244 3.65909 105.077 2.91052 104.724 2.27932C104.369 1.64525 103.839 1.15291 103.151 0.800277L102.786 1.51222C103.348 1.80022 103.756 2.18678 104.026 2.6699C104.298 3.15589 104.444 3.76279 104.444 4.50781H105.244ZM103.153 0.801084C102.452 0.437936 101.725 0.252344 100.977 0.252344V1.05234C101.587 1.05234 102.189 1.20269 102.785 1.51142L103.153 0.801084ZM100.977 0.252344H97.1211V1.05234H100.977V0.252344ZM96.7211 0.652344V8.375H97.5211V0.652344H96.7211ZM96.8867 16.6C96.8742 16.6 96.9382 16.5971 97.0026 16.6615C97.0669 16.7259 97.0641 16.7899 97.0641 16.7773H96.2641C96.2641 16.9132 96.2983 17.0886 96.4369 17.2272C96.5755 17.3658 96.7508 17.4 96.8867 17.4V16.6ZM97.0641 16.7773V0.417969H96.2641V16.7773H97.0641ZM97.0641 0.417969C97.0641 0.405408 97.0669 0.469457 97.0026 0.533819C96.9382 0.598182 96.8742 0.595313 96.8867 0.595313V-0.204688C96.7508 -0.204688 96.5755 -0.170447 96.4369 -0.0318661C96.2983 0.106715 96.2641 0.282092 96.2641 0.417969H97.0641ZM96.8867 0.595313H100.977V-0.204688H96.8867V0.595313ZM100.977 0.595313C101.623 0.595313 102.288 0.763561 102.974 1.11405L103.338 0.40157C102.556 0.00206423 101.767 -0.204688 100.977 -0.204688V0.595313ZM102.976 1.1148C103.624 1.44267 104.096 1.88277 104.408 2.43213C104.722 2.98406 104.889 3.67015 104.889 4.50781H105.689C105.689 3.56423 105.501 2.73469 105.104 2.03662C104.705 1.33598 104.11 0.791708 103.337 0.40083L102.976 1.1148ZM104.889 4.50781C104.889 5.34543 104.722 6.03273 104.408 6.58689C104.095 7.13855 103.623 7.58168 102.974 7.91334L103.338 8.62572C104.111 8.23082 104.706 7.68371 105.104 6.98147C105.501 6.28172 105.689 5.45145 105.689 4.50781H104.889ZM102.977 7.91176C102.291 8.25515 101.625 8.42031 100.977 8.42031V9.22031C101.766 9.22031 102.553 9.01829 103.335 8.6273L102.977 7.91176ZM100.977 8.42031H97.1211V9.22031H100.977V8.42031ZM96.7211 8.82031V16.7773H97.5211V8.82031H96.7211ZM96.7211 16.7773C96.7211 16.7845 96.7202 16.7178 96.787 16.6543C96.8499 16.5945 96.9082 16.6 96.8867 16.6V17.4C97.0215 17.4 97.1969 17.3683 97.338 17.2343C97.4829 17.0967 97.5211 16.9186 97.5211 16.7773H96.7211ZM107.855 0.652344V0.252344H107.455V0.652344H107.855ZM107.855 8.375H107.455V8.775H107.855V8.375ZM107.855 8.82031V8.42031H107.455V8.82031H107.855ZM107.855 16.543H107.455V16.943H107.855V16.543ZM107.621 16.6C107.609 16.6 107.673 16.5971 107.737 16.6615C107.801 16.7259 107.798 16.7899 107.798 16.7773H106.998C106.998 16.9132 107.033 17.0886 107.171 17.2272C107.31 17.3658 107.485 17.4 107.621 17.4V16.6ZM107.798 16.7773V0.417969H106.998V16.7773H107.798ZM107.798 0.417969C107.798 0.405408 107.801 0.469457 107.737 0.533819C107.673 0.598182 107.609 0.595313 107.621 0.595313V-0.204688C107.485 -0.204688 107.31 -0.170447 107.171 -0.0318661C107.033 0.106715 106.998 0.282092 106.998 0.417969H107.798ZM107.621 0.595313H115.801V-0.204688H107.621V0.595313ZM115.801 0.595313C115.813 0.595313 115.749 0.598182 115.685 0.533819C115.621 0.469457 115.623 0.405408 115.623 0.417969H116.423C116.423 0.282092 116.389 0.106715 116.251 -0.0318661C116.112 -0.170447 115.937 -0.204688 115.801 -0.204688V0.595313ZM115.623 0.417969C115.623 0.43941 115.618 0.381186 115.678 0.31825C115.741 0.251472 115.808 0.252344 115.801 0.252344V1.05234C115.942 1.05234 116.12 1.01415 116.258 0.86925C116.392 0.728189 116.423 0.552777 116.423 0.417969H115.623ZM115.801 0.252344H107.855V1.05234H115.801V0.252344ZM107.455 0.652344V8.375H108.255V0.652344H107.455ZM107.855 8.775H111.711V7.975H107.855V8.775ZM111.711 8.775C111.732 8.775 111.674 8.78045 111.611 8.72066C111.544 8.65722 111.545 8.59048 111.545 8.59766H112.345C112.345 8.4564 112.307 8.27832 112.162 8.14066C112.021 8.00666 111.846 7.975 111.711 7.975V8.775ZM111.545 8.59766C111.545 8.60483 111.544 8.53809 111.611 8.47465C111.674 8.41486 111.732 8.42031 111.711 8.42031V9.22031C111.846 9.22031 112.021 9.18866 112.162 9.05465C112.307 8.91699 112.345 8.73892 112.345 8.59766H111.545ZM111.711 8.42031H107.855V9.22031H111.711V8.42031ZM107.455 8.82031V16.543H108.255V8.82031H107.455ZM107.855 16.943H115.801V16.143H107.855V16.943ZM115.801 16.943C115.808 16.943 115.741 16.9438 115.678 16.8771C115.618 16.8141 115.623 16.7559 115.623 16.7773H116.423C116.423 16.6425 116.392 16.4671 116.258 16.3261C116.12 16.1812 115.942 16.143 115.801 16.143V16.943ZM115.623 16.7773C115.623 16.7899 115.621 16.7259 115.685 16.6615C115.749 16.5971 115.813 16.6 115.801 16.6V17.4C115.937 17.4 116.112 17.3658 116.251 17.2272C116.389 17.0886 116.423 16.9132 116.423 16.7773H115.623ZM115.801 16.6H107.621V17.4H115.801V16.6Z" fill="white" mask="url(#path-1-outside-1_80_553)"/>
</svg>
