<svg width="223" height="35" viewBox="0 0 223 35" fill="none" xmlns="http://www.w3.org/2000/svg">
<style>@media (prefers-color-scheme: dark) { .text { fill: white; } }</style>
<rect x="4.01611" y="9.36469" width="5.02768" height="11.5577" stroke="#809FFF"/>
<rect x="0.5" y="29.457" width="19.5946" height="2.01384" stroke="#809FFF"/>
<rect x="5.52307" y="6.35083" width="2.01384" height="3.01846" stroke="#809FFF"/>
<rect x="5.52307" y="20.9177" width="2.01384" height="4.02307" stroke="#809FFF"/>
<rect x="3.51379" y="4.34161" width="6.0323" height="2.01384" stroke="#809FFF"/>
<circle cx="9.795" cy="15.1435" r="3.76961" fill="white" stroke="#809FFF"/>
<circle cx="9.79493" cy="15.1435" r="1.76038" stroke="#809FFF"/>
<path d="M13.5623 14.6412C13.5623 14.6412 19.1781 16.6505 18.8364 22.1759C18.4637 28.2035 13.0599 29.4593 13.0599 29.4593C10.2972 29.4593 4.26956 29.4593 4.26956 29.4593" stroke="#809FFF"/>
<path d="M13.3112 16.3993C13.3112 16.3993 17.3269 17.9062 17.0784 21.9246C16.7523 27.1989 12.0424 27.7012 12.0424 27.7012C9.27976 27.7012 4.26963 27.7012 4.26963 27.7012" stroke="#809FFF"/>
<path d="M4.52075 27.1989V29.9615" stroke="#809FFF"/>
<mask id="path-11-outside-1_59_172" maskUnits="userSpaceOnUse" x="26.7" y="6" width="191" height="27" fill="black">
<rect fill="white" x="26.7" y="6" width="191" height="27"/>
<path d="M40.0613 32C39.9207 32 39.8152 31.9355 39.7449 31.8066L28.1433 8.58594V31.666C28.1433 31.8887 28.0261 32 27.7917 32C27.5691 32 27.4578 31.8887 27.4578 31.666V7.14453C27.4578 6.96875 27.5457 6.85742 27.7214 6.81055C27.8972 6.77539 28.0261 6.83398 28.1082 6.98633L39.7097 30.2246V7.14453C39.7097 6.92187 39.8269 6.81055 40.0613 6.81055C40.2839 6.81055 40.3953 6.92187 40.3953 7.14453V31.666C40.3953 31.8418 40.3074 31.9473 40.1316 31.9824C40.1082 31.9941 40.0847 32 40.0613 32ZM50.0281 32C47.3562 32 45.4812 30.9277 44.4031 28.7832C43.8406 27.6934 43.5593 26.6094 43.5593 25.5312V7.16211C43.5593 6.92773 43.6707 6.81055 43.8933 6.81055C44.1277 6.81055 44.2449 6.92773 44.2449 7.16211V25.5312C44.2449 26.5508 44.4968 27.5469 45.0007 28.5195C45.9617 30.3828 47.6375 31.3145 50.0281 31.3145C52.4187 31.3145 54.0945 30.3828 55.0554 28.5195C55.5593 27.5469 55.8113 26.5508 55.8113 25.5312V7.16211C55.8113 6.92773 55.9226 6.81055 56.1453 6.81055C56.3796 6.81055 56.4968 6.92773 56.4968 7.16211V25.5312C56.4968 26.6094 56.2156 27.6934 55.6531 28.7832C54.5632 30.9277 52.6882 32 50.0281 32ZM71.9832 32C71.7488 32 71.6316 31.8887 71.6316 31.666V8.26953L66.1296 16.5312C66.071 16.625 65.9773 16.6719 65.8484 16.6719C65.7195 16.6719 65.6257 16.625 65.5671 16.5312L60.0652 8.26953V31.666C60.0652 31.8887 59.948 32 59.7136 32C59.491 32 59.3796 31.8887 59.3796 31.666V7.14453C59.3796 6.98047 59.4617 6.86914 59.6257 6.81055C59.7781 6.76367 59.9011 6.81055 59.9949 6.95117L65.8484 15.7227L71.7019 6.95117C71.7957 6.81055 71.9187 6.76367 72.071 6.81055C72.2351 6.86914 72.3171 6.98047 72.3171 7.14453V31.666C72.3171 31.8887 72.2058 32 71.9832 32ZM76.2019 19.0625H81.9851C83.0046 19.0508 84.0007 18.7988 84.9734 18.3066C86.8484 17.334 87.7859 15.6523 87.7859 13.2617C87.7859 10.8711 86.8484 9.18945 84.9734 8.2168C84.0007 7.72461 83.0046 7.47852 81.9851 7.47852H76.2019V19.0625ZM76.2019 31.3145H81.9851C83.0046 31.3145 84.0007 31.0625 84.9734 30.5586C86.8484 29.5977 87.7859 27.9219 87.7859 25.5312C87.7859 23.1406 86.8484 21.459 84.9734 20.4863C84.0007 19.9824 83.0046 19.7305 81.9851 19.7305H76.2019V31.3145ZM75.8503 32C75.6277 32 75.5164 31.8887 75.5164 31.666V7.12695C75.5164 6.9043 75.6277 6.79297 75.8503 6.79297H81.9851C83.0632 6.79297 84.1531 7.06836 85.2546 7.61914C87.3992 8.70898 88.4714 10.5898 88.4714 13.2617C88.4714 16.4609 86.9832 18.5059 84.0066 19.3965C85.2253 19.7598 86.2039 20.3457 86.9421 21.1543C87.9617 22.2559 88.4714 23.7148 88.4714 25.5312C88.4714 28.1914 87.3992 30.0664 85.2546 31.1562C84.1531 31.7188 83.0632 32 81.9851 32H75.8503ZM91.9871 32C91.7644 32 91.6531 31.8887 91.6531 31.666V7.12695C91.6531 6.9043 91.7644 6.79297 91.9871 6.79297H104.257C104.479 6.79297 104.591 6.9043 104.591 7.12695C104.591 7.36133 104.479 7.47852 104.257 7.47852H92.3386V19.0625H98.1218C98.3562 19.0625 98.4734 19.1738 98.4734 19.3965C98.4734 19.6191 98.3562 19.7305 98.1218 19.7305H92.3386V31.3145H104.257C104.479 31.3145 104.591 31.4316 104.591 31.666C104.591 31.8887 104.479 32 104.257 32H91.9871ZM108.44 19.0449H114.223C115.243 19.0449 116.239 18.7988 117.212 18.3066C119.087 17.334 120.024 15.6523 120.024 13.2617C120.024 10.8711 119.087 9.18945 117.212 8.2168C116.239 7.71289 115.243 7.46094 114.223 7.46094H108.44V19.0449ZM120.358 32C120.264 32 120.182 31.9648 120.112 31.8945L108.44 20.2227V31.666C108.44 31.8887 108.323 32 108.089 32C107.866 32 107.755 31.8887 107.755 31.666V7.12695C107.755 6.9043 107.866 6.79297 108.089 6.79297H114.223C115.302 6.79297 116.391 7.06836 117.493 7.61914C119.637 8.70898 120.71 10.5898 120.71 13.2617C120.71 15.9336 119.637 17.8145 117.493 18.9043C116.391 19.4551 115.302 19.7305 114.223 19.7305H108.915L120.604 31.4199C120.768 31.584 120.768 31.7422 120.604 31.8945C120.534 31.9648 120.452 32 120.358 32ZM124.26 32C124.038 32 123.927 31.8887 123.927 31.666C123.927 31.4316 124.038 31.3145 124.26 31.3145H130.395C131.415 31.3145 132.411 31.0625 133.384 30.5586C135.259 29.5977 136.196 27.9219 136.196 25.5312C136.196 23.1406 135.259 21.459 133.384 20.4863C132.411 19.9941 131.415 19.7422 130.395 19.7305C129.317 19.7305 128.233 19.4551 127.143 18.9043C124.999 17.8145 123.927 15.9336 123.927 13.2617C123.927 10.6016 124.999 8.72656 127.143 7.63672C128.233 7.07422 129.317 6.79297 130.395 6.79297H136.53C136.753 6.79297 136.864 6.91016 136.864 7.14453C136.864 7.36719 136.753 7.47852 136.53 7.47852H130.395C129.376 7.47852 128.38 7.73047 127.407 8.23438C125.544 9.19531 124.612 10.8711 124.612 13.2617C124.612 15.6523 125.544 17.334 127.407 18.3066C128.38 18.7988 129.376 19.0508 130.395 19.0625C131.473 19.0625 132.563 19.3379 133.665 19.8887C135.798 20.9785 136.864 22.8594 136.864 25.5312C136.864 28.2031 135.798 30.0781 133.665 31.1562C132.563 31.7188 131.473 32 130.395 32H124.26ZM146.427 32C143.755 32 141.88 30.9277 140.802 28.7832C140.239 27.6934 139.958 26.6094 139.958 25.5312V13.2617C139.958 12.1836 140.239 11.0996 140.802 10.0098C141.88 7.86523 143.755 6.79297 146.427 6.79297H152.544C152.778 6.79297 152.895 6.9043 152.895 7.12695C152.895 7.36133 152.784 7.47852 152.561 7.47852H146.427C144.036 7.47852 142.36 8.41016 141.399 10.2734C140.895 11.2461 140.643 12.2422 140.643 13.2617V25.5312C140.643 26.5508 140.895 27.5469 141.399 28.5195C142.36 30.3828 144.036 31.3145 146.427 31.3145H152.544C152.778 31.3145 152.895 31.4316 152.895 31.666C152.895 31.8887 152.784 32 152.561 32H146.427ZM168.663 32C167.585 32 166.501 31.7188 165.411 31.1562C163.266 30.0781 162.194 28.2031 162.194 25.5312C162.194 23.1406 161.257 21.459 159.382 20.4863C158.421 19.9824 157.425 19.7305 156.393 19.7305C156.171 19.7305 156.059 19.6191 156.059 19.3965C156.059 19.1738 156.171 19.0566 156.393 19.0449C157.425 19.0449 158.421 18.7988 159.382 18.3066C161.257 17.334 162.194 15.6523 162.194 13.2617C162.194 10.5898 163.266 8.70898 165.411 7.61914C166.501 7.06836 167.585 6.79297 168.663 6.79297C168.885 6.79297 169.003 6.9043 169.014 7.12695C169.014 7.34961 168.897 7.46094 168.663 7.46094C167.643 7.47266 166.647 7.72461 165.675 8.2168C163.811 9.18945 162.88 10.8711 162.88 13.2617C162.88 16.4609 161.391 18.5059 158.415 19.3965C159.634 19.7598 160.612 20.3457 161.35 21.1543C162.37 22.2559 162.88 23.7148 162.88 25.5312C162.88 27.9219 163.811 29.5977 165.675 30.5586C166.647 31.0625 167.643 31.3145 168.663 31.3145C168.897 31.3145 169.014 31.4316 169.014 31.666C169.003 31.8887 168.885 32 168.663 32ZM172.495 32C172.272 32 172.161 31.8887 172.161 31.666C172.161 31.4316 172.272 31.3145 172.495 31.3145C173.514 31.3145 174.51 31.0625 175.483 30.5586C177.346 29.5977 178.278 27.9219 178.278 25.5312C178.278 23.7148 178.782 22.2559 179.79 21.1543C180.528 20.3457 181.507 19.7598 182.725 19.3965C179.76 18.5059 178.278 16.4609 178.278 13.2617C178.278 10.8711 177.346 9.18945 175.483 8.2168C174.51 7.72461 173.514 7.47266 172.495 7.46094C172.272 7.46094 172.161 7.34961 172.161 7.12695C172.161 6.9043 172.272 6.79297 172.495 6.79297C173.573 6.79297 174.657 7.06836 175.747 7.61914C177.891 8.70898 178.964 10.5898 178.964 13.2617C178.964 15.6523 179.895 17.334 181.759 18.3066C182.719 18.7988 183.71 19.0449 184.729 19.0449C184.964 19.0566 185.081 19.1738 185.081 19.3965C185.081 19.6191 184.964 19.7305 184.729 19.7305C183.71 19.7305 182.719 19.9824 181.759 20.4863C179.895 21.459 178.964 23.1406 178.964 25.5312C178.964 28.2031 177.891 30.0781 175.747 31.1562C174.657 31.7188 173.573 32 172.495 32ZM188.948 19.0625H194.731C195.751 19.0508 196.747 18.7988 197.719 18.3066C199.594 17.334 200.532 15.6523 200.532 13.2617C200.532 10.8711 199.594 9.19531 197.719 8.23438C196.747 7.73047 195.751 7.47852 194.731 7.47852H188.948V19.0625ZM188.596 32C188.374 32 188.262 31.8887 188.262 31.666V7.12695C188.262 6.9043 188.374 6.79297 188.596 6.79297H194.731C195.809 6.79297 196.899 7.07422 198.001 7.63672C200.134 8.71484 201.2 10.5898 201.2 13.2617C201.2 15.9336 200.134 17.8145 198.001 18.9043C196.899 19.4551 195.809 19.7305 194.731 19.7305H188.948V31.666C188.948 31.8887 188.831 32 188.596 32ZM204.698 32C204.475 32 204.364 31.8887 204.364 31.666V7.12695C204.364 6.9043 204.475 6.79297 204.698 6.79297H216.968C217.19 6.79297 217.302 6.9043 217.302 7.12695C217.302 7.36133 217.19 7.47852 216.968 7.47852H205.05V19.0625H210.833C211.067 19.0625 211.184 19.1738 211.184 19.3965C211.184 19.6191 211.067 19.7305 210.833 19.7305H205.05V31.3145H216.968C217.19 31.3145 217.302 31.4316 217.302 31.666C217.302 31.8887 217.19 32 216.968 32H204.698Z"/>
</mask>
<path class="text" d="M40.0613 32C39.9207 32 39.8152 31.9355 39.7449 31.8066L28.1433 8.58594V31.666C28.1433 31.8887 28.0261 32 27.7917 32C27.5691 32 27.4578 31.8887 27.4578 31.666V7.14453C27.4578 6.96875 27.5457 6.85742 27.7214 6.81055C27.8972 6.77539 28.0261 6.83398 28.1082 6.98633L39.7097 30.2246V7.14453C39.7097 6.92187 39.8269 6.81055 40.0613 6.81055C40.2839 6.81055 40.3953 6.92187 40.3953 7.14453V31.666C40.3953 31.8418 40.3074 31.9473 40.1316 31.9824C40.1082 31.9941 40.0847 32 40.0613 32ZM50.0281 32C47.3562 32 45.4812 30.9277 44.4031 28.7832C43.8406 27.6934 43.5593 26.6094 43.5593 25.5312V7.16211C43.5593 6.92773 43.6707 6.81055 43.8933 6.81055C44.1277 6.81055 44.2449 6.92773 44.2449 7.16211V25.5312C44.2449 26.5508 44.4968 27.5469 45.0007 28.5195C45.9617 30.3828 47.6375 31.3145 50.0281 31.3145C52.4187 31.3145 54.0945 30.3828 55.0554 28.5195C55.5593 27.5469 55.8113 26.5508 55.8113 25.5312V7.16211C55.8113 6.92773 55.9226 6.81055 56.1453 6.81055C56.3796 6.81055 56.4968 6.92773 56.4968 7.16211V25.5312C56.4968 26.6094 56.2156 27.6934 55.6531 28.7832C54.5632 30.9277 52.6882 32 50.0281 32ZM71.9832 32C71.7488 32 71.6316 31.8887 71.6316 31.666V8.26953L66.1296 16.5312C66.071 16.625 65.9773 16.6719 65.8484 16.6719C65.7195 16.6719 65.6257 16.625 65.5671 16.5312L60.0652 8.26953V31.666C60.0652 31.8887 59.948 32 59.7136 32C59.491 32 59.3796 31.8887 59.3796 31.666V7.14453C59.3796 6.98047 59.4617 6.86914 59.6257 6.81055C59.7781 6.76367 59.9011 6.81055 59.9949 6.95117L65.8484 15.7227L71.7019 6.95117C71.7957 6.81055 71.9187 6.76367 72.071 6.81055C72.2351 6.86914 72.3171 6.98047 72.3171 7.14453V31.666C72.3171 31.8887 72.2058 32 71.9832 32ZM76.2019 19.0625H81.9851C83.0046 19.0508 84.0007 18.7988 84.9734 18.3066C86.8484 17.334 87.7859 15.6523 87.7859 13.2617C87.7859 10.8711 86.8484 9.18945 84.9734 8.2168C84.0007 7.72461 83.0046 7.47852 81.9851 7.47852H76.2019V19.0625ZM76.2019 31.3145H81.9851C83.0046 31.3145 84.0007 31.0625 84.9734 30.5586C86.8484 29.5977 87.7859 27.9219 87.7859 25.5312C87.7859 23.1406 86.8484 21.459 84.9734 20.4863C84.0007 19.9824 83.0046 19.7305 81.9851 19.7305H76.2019V31.3145ZM75.8503 32C75.6277 32 75.5164 31.8887 75.5164 31.666V7.12695C75.5164 6.9043 75.6277 6.79297 75.8503 6.79297H81.9851C83.0632 6.79297 84.1531 7.06836 85.2546 7.61914C87.3992 8.70898 88.4714 10.5898 88.4714 13.2617C88.4714 16.4609 86.9832 18.5059 84.0066 19.3965C85.2253 19.7598 86.2039 20.3457 86.9421 21.1543C87.9617 22.2559 88.4714 23.7148 88.4714 25.5312C88.4714 28.1914 87.3992 30.0664 85.2546 31.1562C84.1531 31.7188 83.0632 32 81.9851 32H75.8503ZM91.9871 32C91.7644 32 91.6531 31.8887 91.6531 31.666V7.12695C91.6531 6.9043 91.7644 6.79297 91.9871 6.79297H104.257C104.479 6.79297 104.591 6.9043 104.591 7.12695C104.591 7.36133 104.479 7.47852 104.257 7.47852H92.3386V19.0625H98.1218C98.3562 19.0625 98.4734 19.1738 98.4734 19.3965C98.4734 19.6191 98.3562 19.7305 98.1218 19.7305H92.3386V31.3145H104.257C104.479 31.3145 104.591 31.4316 104.591 31.666C104.591 31.8887 104.479 32 104.257 32H91.9871ZM108.44 19.0449H114.223C115.243 19.0449 116.239 18.7988 117.212 18.3066C119.087 17.334 120.024 15.6523 120.024 13.2617C120.024 10.8711 119.087 9.18945 117.212 8.2168C116.239 7.71289 115.243 7.46094 114.223 7.46094H108.44V19.0449ZM120.358 32C120.264 32 120.182 31.9648 120.112 31.8945L108.44 20.2227V31.666C108.44 31.8887 108.323 32 108.089 32C107.866 32 107.755 31.8887 107.755 31.666V7.12695C107.755 6.9043 107.866 6.79297 108.089 6.79297H114.223C115.302 6.79297 116.391 7.06836 117.493 7.61914C119.637 8.70898 120.71 10.5898 120.71 13.2617C120.71 15.9336 119.637 17.8145 117.493 18.9043C116.391 19.4551 115.302 19.7305 114.223 19.7305H108.915L120.604 31.4199C120.768 31.584 120.768 31.7422 120.604 31.8945C120.534 31.9648 120.452 32 120.358 32ZM124.26 32C124.038 32 123.927 31.8887 123.927 31.666C123.927 31.4316 124.038 31.3145 124.26 31.3145H130.395C131.415 31.3145 132.411 31.0625 133.384 30.5586C135.259 29.5977 136.196 27.9219 136.196 25.5312C136.196 23.1406 135.259 21.459 133.384 20.4863C132.411 19.9941 131.415 19.7422 130.395 19.7305C129.317 19.7305 128.233 19.4551 127.143 18.9043C124.999 17.8145 123.927 15.9336 123.927 13.2617C123.927 10.6016 124.999 8.72656 127.143 7.63672C128.233 7.07422 129.317 6.79297 130.395 6.79297H136.53C136.753 6.79297 136.864 6.91016 136.864 7.14453C136.864 7.36719 136.753 7.47852 136.53 7.47852H130.395C129.376 7.47852 128.38 7.73047 127.407 8.23438C125.544 9.19531 124.612 10.8711 124.612 13.2617C124.612 15.6523 125.544 17.334 127.407 18.3066C128.38 18.7988 129.376 19.0508 130.395 19.0625C131.473 19.0625 132.563 19.3379 133.665 19.8887C135.798 20.9785 136.864 22.8594 136.864 25.5312C136.864 28.2031 135.798 30.0781 133.665 31.1562C132.563 31.7188 131.473 32 130.395 32H124.26ZM146.427 32C143.755 32 141.88 30.9277 140.802 28.7832C140.239 27.6934 139.958 26.6094 139.958 25.5312V13.2617C139.958 12.1836 140.239 11.0996 140.802 10.0098C141.88 7.86523 143.755 6.79297 146.427 6.79297H152.544C152.778 6.79297 152.895 6.9043 152.895 7.12695C152.895 7.36133 152.784 7.47852 152.561 7.47852H146.427C144.036 7.47852 142.36 8.41016 141.399 10.2734C140.895 11.2461 140.643 12.2422 140.643 13.2617V25.5312C140.643 26.5508 140.895 27.5469 141.399 28.5195C142.36 30.3828 144.036 31.3145 146.427 31.3145H152.544C152.778 31.3145 152.895 31.4316 152.895 31.666C152.895 31.8887 152.784 32 152.561 32H146.427ZM168.663 32C167.585 32 166.501 31.7188 165.411 31.1562C163.266 30.0781 162.194 28.2031 162.194 25.5312C162.194 23.1406 161.257 21.459 159.382 20.4863C158.421 19.9824 157.425 19.7305 156.393 19.7305C156.171 19.7305 156.059 19.6191 156.059 19.3965C156.059 19.1738 156.171 19.0566 156.393 19.0449C157.425 19.0449 158.421 18.7988 159.382 18.3066C161.257 17.334 162.194 15.6523 162.194 13.2617C162.194 10.5898 163.266 8.70898 165.411 7.61914C166.501 7.06836 167.585 6.79297 168.663 6.79297C168.885 6.79297 169.003 6.9043 169.014 7.12695C169.014 7.34961 168.897 7.46094 168.663 7.46094C167.643 7.47266 166.647 7.72461 165.675 8.2168C163.811 9.18945 162.88 10.8711 162.88 13.2617C162.88 16.4609 161.391 18.5059 158.415 19.3965C159.634 19.7598 160.612 20.3457 161.35 21.1543C162.37 22.2559 162.88 23.7148 162.88 25.5312C162.88 27.9219 163.811 29.5977 165.675 30.5586C166.647 31.0625 167.643 31.3145 168.663 31.3145C168.897 31.3145 169.014 31.4316 169.014 31.666C169.003 31.8887 168.885 32 168.663 32ZM172.495 32C172.272 32 172.161 31.8887 172.161 31.666C172.161 31.4316 172.272 31.3145 172.495 31.3145C173.514 31.3145 174.51 31.0625 175.483 30.5586C177.346 29.5977 178.278 27.9219 178.278 25.5312C178.278 23.7148 178.782 22.2559 179.79 21.1543C180.528 20.3457 181.507 19.7598 182.725 19.3965C179.76 18.5059 178.278 16.4609 178.278 13.2617C178.278 10.8711 177.346 9.18945 175.483 8.2168C174.51 7.72461 173.514 7.47266 172.495 7.46094C172.272 7.46094 172.161 7.34961 172.161 7.12695C172.161 6.9043 172.272 6.79297 172.495 6.79297C173.573 6.79297 174.657 7.06836 175.747 7.61914C177.891 8.70898 178.964 10.5898 178.964 13.2617C178.964 15.6523 179.895 17.334 181.759 18.3066C182.719 18.7988 183.71 19.0449 184.729 19.0449C184.964 19.0566 185.081 19.1738 185.081 19.3965C185.081 19.6191 184.964 19.7305 184.729 19.7305C183.71 19.7305 182.719 19.9824 181.759 20.4863C179.895 21.459 178.964 23.1406 178.964 25.5312C178.964 28.2031 177.891 30.0781 175.747 31.1562C174.657 31.7188 173.573 32 172.495 32ZM188.948 19.0625H194.731C195.751 19.0508 196.747 18.7988 197.719 18.3066C199.594 17.334 200.532 15.6523 200.532 13.2617C200.532 10.8711 199.594 9.19531 197.719 8.23438C196.747 7.73047 195.751 7.47852 194.731 7.47852H188.948V19.0625ZM188.596 32C188.374 32 188.262 31.8887 188.262 31.666V7.12695C188.262 6.9043 188.374 6.79297 188.596 6.79297H194.731C195.809 6.79297 196.899 7.07422 198.001 7.63672C200.134 8.71484 201.2 10.5898 201.2 13.2617C201.2 15.9336 200.134 17.8145 198.001 18.9043C196.899 19.4551 195.809 19.7305 194.731 19.7305H188.948V31.666C188.948 31.8887 188.831 32 188.596 32ZM204.698 32C204.475 32 204.364 31.8887 204.364 31.666V7.12695C204.364 6.9043 204.475 6.79297 204.698 6.79297H216.968C217.19 6.79297 217.302 6.9043 217.302 7.12695C217.302 7.36133 217.19 7.47852 216.968 7.47852H205.05V19.0625H210.833C211.067 19.0625 211.184 19.1738 211.184 19.3965C211.184 19.6191 211.067 19.7305 210.833 19.7305H205.05V31.3145H216.968C217.19 31.3145 217.302 31.4316 217.302 31.666C217.302 31.8887 217.19 32 216.968 32H204.698Z" fill="black"/>
<path class="text" d="M39.7449 31.8066L39.5658 31.8961L39.5693 31.9024L39.7449 31.8066ZM28.1433 8.58594L28.3222 8.49655L27.9433 8.58594H28.1433ZM27.7214 6.81055L27.6821 6.61404L27.6699 6.6173L27.7214 6.81055ZM28.1082 6.98633L28.2872 6.89695L28.2842 6.89151L28.1082 6.98633ZM39.7097 30.2246L39.5308 30.3139L39.9097 30.2246H39.7097ZM40.1316 31.9824L40.0924 31.7863L40.0661 31.7916L40.0421 31.8035L40.1316 31.9824ZM40.0613 31.8C40.0226 31.8 39.9982 31.7915 39.981 31.781C39.9634 31.7702 39.942 31.7504 39.9205 31.7109L39.5693 31.9024C39.6181 31.9918 39.6846 32.0686 39.7724 32.1223C39.8607 32.1763 39.9593 32.2 40.0613 32.2V31.8ZM39.9238 31.7173L28.3222 8.49655L27.9644 8.67533L39.566 31.896L39.9238 31.7173ZM27.9433 8.58594V31.666H28.3433V8.58594H27.9433ZM27.9433 31.666C27.9433 31.7438 27.9233 31.7661 27.9177 31.7715C27.9101 31.7787 27.8806 31.8 27.7917 31.8V32.2C27.9373 32.2 28.0836 32.1656 28.1932 32.0615C28.3047 31.9556 28.3433 31.8109 28.3433 31.666H27.9433ZM27.7917 31.8C27.7112 31.8 27.6876 31.78 27.6827 31.7751C27.6778 31.7702 27.6578 31.7465 27.6578 31.666H27.2578C27.2578 31.8082 27.2934 31.9515 27.3998 32.0579C27.5062 32.1643 27.6496 32.2 27.7917 32.2V31.8ZM27.6578 31.666V7.14453H27.2578V31.666H27.6578ZM27.6578 7.14453C27.6578 7.09059 27.6707 7.06572 27.6807 7.05313C27.6911 7.03985 27.7149 7.01927 27.773 7.00379L27.6699 6.6173C27.5522 6.6487 27.4441 6.70722 27.3667 6.80527C27.2888 6.90401 27.2578 7.02269 27.2578 7.14453H27.6578ZM27.7607 7.00666C27.8184 6.99511 27.85 7.00239 27.8672 7.0102C27.8836 7.01767 27.9071 7.03473 27.9321 7.08115L28.2842 6.89151C28.2272 6.78558 28.1452 6.69717 28.0327 6.64605C27.921 6.59527 27.8002 6.59083 27.6822 6.61443L27.7607 7.00666ZM27.9292 7.07566L39.5308 30.3139L39.8887 30.1353L28.2871 6.89699L27.9292 7.07566ZM39.9097 30.2246V7.14453H39.5097V30.2246H39.9097ZM39.9097 7.14453C39.9097 7.06672 39.9297 7.04443 39.9354 7.03904C39.943 7.03183 39.9724 7.01055 40.0613 7.01055V6.61055C39.9158 6.61055 39.7695 6.64493 39.6599 6.74904C39.5483 6.85498 39.5097 6.99968 39.5097 7.14453H39.9097ZM40.0613 7.01055C40.1418 7.01055 40.1654 7.03054 40.1703 7.03546C40.1753 7.04039 40.1953 7.06403 40.1953 7.14453H40.5953C40.5953 7.00237 40.5596 6.85902 40.4532 6.75262C40.3468 6.64622 40.2034 6.61055 40.0613 6.61055V7.01055ZM40.1953 7.14453V31.666H40.5953V7.14453H40.1953ZM40.1953 31.666C40.1953 31.7205 40.1821 31.7412 40.1757 31.7489C40.1689 31.7571 40.1493 31.7749 40.0924 31.7863L40.1708 32.1785C40.2897 32.1548 40.4019 32.1023 40.483 32.005C40.5645 31.9072 40.5953 31.7873 40.5953 31.666H40.1953ZM40.0421 31.8035C40.0424 31.8034 40.0444 31.8025 40.0479 31.8016C40.0516 31.8007 40.0561 31.8 40.0613 31.8V32.2C40.1193 32.2 40.1731 32.1853 40.221 32.1613L40.0421 31.8035ZM44.4031 28.7832L44.5818 28.6934L44.5808 28.6915L44.4031 28.7832ZM45.0007 28.5195L45.1785 28.4279L45.1783 28.4275L45.0007 28.5195ZM55.0554 28.5195L54.8778 28.4275L54.8777 28.4279L55.0554 28.5195ZM55.6531 28.7832L55.4753 28.6915L55.4748 28.6926L55.6531 28.7832ZM50.0281 31.8C48.7188 31.8 47.6181 31.5374 46.7172 31.0222C45.8176 30.5077 45.1052 29.7346 44.5818 28.6934L44.2244 28.873C44.7791 29.9764 45.5433 30.8116 46.5186 31.3694C47.4928 31.9265 48.6655 32.2 50.0281 32.2V31.8ZM44.5808 28.6915C44.0309 27.6261 43.7593 26.5733 43.7593 25.5312H43.3593C43.3593 26.6454 43.6502 27.7607 44.2254 28.8749L44.5808 28.6915ZM43.7593 25.5312V7.16211H43.3593V25.5312H43.7593ZM43.7593 7.16211C43.7593 7.07326 43.7806 7.04378 43.7878 7.03619C43.7932 7.03051 43.8155 7.01055 43.8933 7.01055V6.61055C43.7485 6.61055 43.6038 6.64917 43.4978 6.76069C43.3937 6.87028 43.3593 7.01658 43.3593 7.16211H43.7593ZM43.8933 7.01055C43.9797 7.01055 44.0077 7.032 44.0156 7.03986C44.0234 7.04772 44.0449 7.07575 44.0449 7.16211H44.4449C44.4449 7.01409 44.4077 6.86635 44.2984 6.75702C44.1891 6.64769 44.0413 6.61055 43.8933 6.61055V7.01055ZM44.0449 7.16211V25.5312H44.4449V7.16211H44.0449ZM44.0449 25.5312C44.0449 26.5852 44.3056 27.6126 44.8231 28.6115L45.1783 28.4275C44.688 27.4811 44.4449 26.5164 44.4449 25.5312H44.0449ZM44.823 28.6112C45.3198 29.5745 46.0055 30.3038 46.8811 30.7905C47.7552 31.2765 48.807 31.5145 50.0281 31.5145V31.1145C48.8585 31.1145 47.8771 30.8866 47.0755 30.4409C46.2752 29.996 45.6426 29.3279 45.1785 28.4279L44.823 28.6112ZM50.0281 31.5145C51.2491 31.5145 52.301 31.2765 53.1751 30.7905C54.0506 30.3038 54.7364 29.5745 55.2332 28.6112L54.8777 28.4279C54.4135 29.3279 53.7809 29.996 52.9807 30.4409C52.179 30.8866 51.1977 31.1145 50.0281 31.1145V31.5145ZM55.233 28.6115C55.7505 27.6126 56.0113 26.5852 56.0113 25.5312H55.6113C55.6113 26.5164 55.3681 27.4811 54.8778 28.4275L55.233 28.6115ZM56.0113 25.5312V7.16211H55.6113V25.5312H56.0113ZM56.0113 7.16211C56.0113 7.07326 56.0326 7.04378 56.0398 7.03619C56.0452 7.03051 56.0675 7.01055 56.1453 7.01055V6.61055C56.0004 6.61055 55.8557 6.64917 55.7498 6.76069C55.6457 6.87028 55.6113 7.01658 55.6113 7.16211H56.0113ZM56.1453 7.01055C56.2316 7.01055 56.2597 7.032 56.2675 7.03986C56.2754 7.04772 56.2968 7.07575 56.2968 7.16211H56.6968C56.6968 7.01409 56.6597 6.86635 56.5504 6.75702C56.441 6.64769 56.2933 6.61055 56.1453 6.61055V7.01055ZM56.2968 7.16211V25.5312H56.6968V7.16211H56.2968ZM56.2968 25.5312C56.2968 26.5733 56.0252 27.6261 55.4754 28.6915L55.8308 28.8749C56.4059 27.7607 56.6968 26.6454 56.6968 25.5312H56.2968ZM55.4748 28.6926C54.9455 29.7342 54.23 30.5076 53.3302 31.0222C52.4292 31.5374 51.3313 31.8 50.0281 31.8V32.2C51.385 32.2 52.5547 31.9264 53.5287 31.3694C54.5039 30.8118 55.2709 29.9768 55.8314 28.8738L55.4748 28.6926ZM71.6316 8.26953H71.8316V7.60839L71.4651 8.15867L71.6316 8.26953ZM66.1296 16.5312L65.9631 16.4203L65.96 16.4253L66.1296 16.5312ZM65.5671 16.5312L65.7368 16.4252L65.7336 16.4204L65.5671 16.5312ZM60.0652 8.26953L60.2317 8.15867L59.8652 7.60839V8.26953H60.0652ZM59.6257 6.81055L59.5669 6.6192L59.5585 6.6222L59.6257 6.81055ZM59.9949 6.95117L59.8285 7.06211L59.8285 7.06219L59.9949 6.95117ZM65.8484 15.7227L65.682 15.8337L65.8484 16.083L66.0147 15.8337L65.8484 15.7227ZM71.7019 6.95117L71.8683 7.06219L71.8683 7.06211L71.7019 6.95117ZM72.071 6.81055L72.1384 6.62201L72.1299 6.61939L72.071 6.81055ZM71.9832 31.8C71.8943 31.8 71.8648 31.7787 71.8572 31.7715C71.8516 31.7661 71.8316 31.7438 71.8316 31.666H71.4316C71.4316 31.8109 71.4702 31.9556 71.5817 32.0615C71.6913 32.1656 71.8376 32.2 71.9832 32.2V31.8ZM71.8316 31.666V8.26953H71.4316V31.666H71.8316ZM71.4651 8.15867L65.9632 16.4204L66.2961 16.6421L71.7981 8.38039L71.4651 8.15867ZM65.96 16.4253C65.9446 16.45 65.9218 16.4719 65.8484 16.4719V16.8719C66.0328 16.8719 66.1975 16.8 66.2992 16.6372L65.96 16.4253ZM65.8484 16.4719C65.775 16.4719 65.7522 16.45 65.7367 16.4253L65.3975 16.6372C65.4993 16.8 65.664 16.8719 65.8484 16.8719V16.4719ZM65.7336 16.4204L60.2317 8.15867L59.8987 8.38039L65.4007 16.6421L65.7336 16.4204ZM59.8652 8.26953V31.666H60.2652V8.26953H59.8652ZM59.8652 31.666C59.8652 31.7438 59.8452 31.7661 59.8395 31.7715C59.832 31.7787 59.8025 31.8 59.7136 31.8V32.2C59.8592 32.2 60.0055 32.1656 60.115 32.0615C60.2266 31.9556 60.2652 31.8109 60.2652 31.666H59.8652ZM59.7136 31.8C59.6331 31.8 59.6095 31.78 59.6046 31.7751C59.5996 31.7702 59.5796 31.7465 59.5796 31.666H59.1796C59.1796 31.8082 59.2153 31.9515 59.3217 32.0579C59.4281 32.1643 59.5715 32.2 59.7136 32.2V31.8ZM59.5796 31.666V7.14453H59.1796V31.666H59.5796ZM59.5796 7.14453C59.5796 7.097 59.5909 7.07186 59.6022 7.05663C59.6141 7.04043 59.6387 7.01828 59.693 6.9989L59.5585 6.6222C59.4487 6.66141 59.3503 6.72421 59.2802 6.81935C59.2093 6.91544 59.1796 7.028 59.1796 7.14453H59.5796ZM59.6845 7.0017C59.7274 6.98853 59.7494 6.993 59.7611 6.99744C59.774 7.00237 59.7981 7.01659 59.8285 7.06211L60.1613 6.84023C60.0979 6.74513 60.0136 6.6656 59.9035 6.62365C59.7921 6.58121 59.6764 6.58569 59.5669 6.61939L59.6845 7.0017ZM59.8285 7.06219L65.682 15.8337L66.0147 15.6116L60.1612 6.84015L59.8285 7.06219ZM66.0147 15.8337L71.8683 7.06219L71.5355 6.84015L65.682 15.6116L66.0147 15.8337ZM71.8683 7.06211C71.8987 7.01659 71.9228 7.00237 71.9357 6.99744C71.9474 6.993 71.9694 6.98853 72.0122 7.0017L72.1299 6.61939C72.0203 6.58569 71.9047 6.58121 71.7933 6.62365C71.6832 6.6656 71.5989 6.74513 71.5355 6.84023L71.8683 7.06211ZM72.0038 6.9989C72.0581 7.01828 72.0827 7.04043 72.0946 7.05663C72.1058 7.07186 72.1171 7.097 72.1171 7.14453H72.5171C72.5171 7.028 72.4874 6.91544 72.4166 6.81935C72.3465 6.72421 72.2481 6.66141 72.1383 6.6222L72.0038 6.9989ZM72.1171 7.14453V31.666H72.5171V7.14453H72.1171ZM72.1171 31.666C72.1171 31.7465 72.0971 31.7702 72.0922 31.7751C72.0873 31.78 72.0637 31.8 71.9832 31.8V32.2C72.1253 32.2 72.2687 32.1643 72.3751 32.0579C72.4815 31.9515 72.5171 31.8082 72.5171 31.666H72.1171ZM76.2019 19.0625H76.0019V19.2625H76.2019V19.0625ZM81.9851 19.0625V19.2625L81.9874 19.2625L81.9851 19.0625ZM84.9734 18.3066L85.0637 18.4851L85.0655 18.4842L84.9734 18.3066ZM84.9734 8.2168L85.0655 8.03925L85.0637 8.03834L84.9734 8.2168ZM76.2019 7.47852V7.27852H76.0019V7.47852H76.2019ZM76.2019 31.3145H76.0019V31.5145H76.2019V31.3145ZM84.9734 30.5586L84.8822 30.3806L84.8814 30.381L84.9734 30.5586ZM84.9734 20.4863L85.0655 20.3088L85.0654 20.3087L84.9734 20.4863ZM76.2019 19.7305V19.5305H76.0019V19.7305H76.2019ZM85.2546 7.61914L85.3453 7.44084L85.3441 7.44026L85.2546 7.61914ZM84.0066 19.3965L83.9493 19.2049L83.3077 19.3968L83.9495 19.5882L84.0066 19.3965ZM86.9421 21.1543L86.7944 21.2892L86.7954 21.2901L86.9421 21.1543ZM85.2546 31.1562L85.164 30.978L85.1637 30.9781L85.2546 31.1562ZM76.2019 19.2625H81.9851V18.8625H76.2019V19.2625ZM81.9874 19.2625C83.0396 19.2504 84.0657 18.9901 85.0637 18.4851L84.8831 18.1282C83.9358 18.6075 82.9697 18.8512 81.9828 18.8625L81.9874 19.2625ZM85.0655 18.4842C86.0343 17.9816 86.7678 17.2917 87.2575 16.4133C87.7464 15.5363 87.9859 14.483 87.9859 13.2617H87.5859C87.5859 14.4311 87.3567 15.4139 86.9081 16.2185C86.4603 17.0218 85.7875 17.659 84.8813 18.1291L85.0655 18.4842ZM87.9859 13.2617C87.9859 12.0405 87.7464 10.9871 87.2575 10.1101C86.7678 9.23178 86.0343 8.54181 85.0655 8.03926L84.8813 8.39433C85.7875 8.86444 86.4603 9.50162 86.9081 10.3049C87.3567 11.1096 87.5859 12.0924 87.5859 13.2617H87.9859ZM85.0637 8.03834C84.065 7.53299 83.0382 7.27852 81.9851 7.27852V7.67852C82.9711 7.67852 83.9364 7.91622 84.8831 8.39525L85.0637 8.03834ZM81.9851 7.27852H76.2019V7.67852H81.9851V7.27852ZM76.0019 7.47852V19.0625H76.4019V7.47852H76.0019ZM76.2019 31.5145H81.9851V31.1145H76.2019V31.5145ZM81.9851 31.5145C83.039 31.5145 84.0665 31.2537 85.0654 30.7362L84.8814 30.381C83.935 30.8713 82.9703 31.1145 81.9851 31.1145V31.5145ZM85.0646 30.7366C86.0336 30.24 86.7674 29.5543 87.2573 28.6787C87.7464 27.8045 87.9859 26.7525 87.9859 25.5312H87.5859C87.5859 26.7006 87.3567 27.6818 86.9082 28.4834C86.4606 29.2836 85.7881 29.9163 84.8822 30.3806L85.0646 30.7366ZM87.9859 25.5312C87.9859 24.31 87.7464 23.2566 87.2575 22.3797C86.7678 21.5013 86.0343 20.8113 85.0655 20.3088L84.8813 20.6639C85.7875 21.134 86.4603 21.7712 86.9081 22.5744C87.3567 23.3791 87.5859 24.3619 87.5859 25.5312H87.9859ZM85.0654 20.3087C84.0665 19.7912 83.039 19.5305 81.9851 19.5305V19.9305C82.9703 19.9305 83.935 20.1736 84.8814 20.6639L85.0654 20.3087ZM81.9851 19.5305H76.2019V19.9305H81.9851V19.5305ZM76.0019 19.7305V31.3145H76.4019V19.7305H76.0019ZM75.8503 31.8C75.7698 31.8 75.7462 31.78 75.7413 31.7751C75.7363 31.7702 75.7164 31.7465 75.7164 31.666H75.3164C75.3164 31.8082 75.352 31.9515 75.4584 32.0579C75.5648 32.1643 75.7082 32.2 75.8503 32.2V31.8ZM75.7164 31.666V7.12695H75.3164V31.666H75.7164ZM75.7164 7.12695C75.7164 7.04645 75.7363 7.02281 75.7413 7.01789C75.7462 7.01296 75.7698 6.99297 75.8503 6.99297V6.59297C75.7082 6.59297 75.5648 6.62864 75.4584 6.73504C75.352 6.84144 75.3164 6.9848 75.3164 7.12695H75.7164ZM75.8503 6.99297H81.9851V6.59297H75.8503V6.99297ZM81.9851 6.99297C83.028 6.99297 84.0874 7.25914 85.1652 7.79803L85.3441 7.44026C84.2187 6.87757 83.0984 6.59297 81.9851 6.59297V6.99297ZM85.164 7.79744C86.2054 8.32668 86.9788 9.04348 87.4935 9.94622C88.0088 10.8502 88.2714 11.9525 88.2714 13.2617H88.6714C88.6714 11.8991 88.3979 10.725 87.841 9.74812C87.2834 8.77 86.4484 8.00144 85.3452 7.44084L85.164 7.79744ZM88.2714 13.2617C88.2714 14.8303 87.9069 16.097 87.1935 17.0771C86.4806 18.0567 85.4054 18.7692 83.9493 19.2049L84.0639 19.5881C85.5843 19.1332 86.7416 18.3778 87.5169 17.3125C88.2919 16.2477 88.6714 14.8923 88.6714 13.2617H88.2714ZM83.9495 19.5882C85.1391 19.9428 86.0844 20.5114 86.7944 21.2892L87.0898 21.0194C86.3234 20.18 85.3116 19.5768 84.0637 19.2048L83.9495 19.5882ZM86.7954 21.2901C87.7738 22.3473 88.2714 23.754 88.2714 25.5312H88.6714C88.6714 23.6756 88.1496 22.1644 87.0889 21.0184L86.7954 21.2901ZM88.2714 25.5312C88.2714 26.8345 88.0089 27.9323 87.4936 28.8333C86.979 29.7332 86.2056 30.4486 85.164 30.978L85.3452 31.3345C86.4482 30.774 87.2832 30.0071 87.8409 29.0319C88.3979 28.0579 88.6714 26.8882 88.6714 25.5312H88.2714ZM85.1637 30.9781C84.0861 31.5284 83.0272 31.8 81.9851 31.8V32.2C83.0992 32.2 84.22 31.9091 85.3456 31.3344L85.1637 30.9781ZM81.9851 31.8H75.8503V32.2H81.9851V31.8ZM92.3386 7.47852V7.27852H92.1386V7.47852H92.3386ZM92.3386 19.0625H92.1386V19.2625H92.3386V19.0625ZM92.3386 19.7305V19.5305H92.1386V19.7305H92.3386ZM92.3386 31.3145H92.1386V31.5145H92.3386V31.3145ZM91.9871 31.8C91.9066 31.8 91.8829 31.78 91.878 31.7751C91.8731 31.7702 91.8531 31.7465 91.8531 31.666H91.4531C91.4531 31.8082 91.4888 31.9515 91.5952 32.0579C91.7016 32.1643 91.8449 32.2 91.9871 32.2V31.8ZM91.8531 31.666V7.12695H91.4531V31.666H91.8531ZM91.8531 7.12695C91.8531 7.04645 91.8731 7.02281 91.878 7.01789C91.8829 7.01296 91.9066 6.99297 91.9871 6.99297V6.59297C91.8449 6.59297 91.7016 6.62864 91.5952 6.73504C91.4888 6.84144 91.4531 6.9848 91.4531 7.12695H91.8531ZM91.9871 6.99297H104.257V6.59297H91.9871V6.99297ZM104.257 6.99297C104.337 6.99297 104.361 7.01296 104.366 7.01789C104.371 7.02281 104.391 7.04645 104.391 7.12695H104.791C104.791 6.9848 104.755 6.84144 104.649 6.73504C104.542 6.62864 104.399 6.59297 104.257 6.59297V6.99297ZM104.391 7.12695C104.391 7.2158 104.369 7.24528 104.362 7.25288C104.357 7.25855 104.334 7.27852 104.257 7.27852V7.67852C104.401 7.67852 104.546 7.63989 104.652 7.52837C104.756 7.41878 104.791 7.27248 104.791 7.12695H104.391ZM104.257 7.27852H92.3386V7.67852H104.257V7.27852ZM92.1386 7.47852V19.0625H92.5386V7.47852H92.1386ZM92.3386 19.2625H98.1218V18.8625H92.3386V19.2625ZM98.1218 19.2625C98.2107 19.2625 98.2402 19.2838 98.2477 19.291C98.2534 19.2964 98.2734 19.3187 98.2734 19.3965H98.6734C98.6734 19.2516 98.6348 19.1069 98.5232 19.001C98.4137 18.8969 98.2674 18.8625 98.1218 18.8625V19.2625ZM98.2734 19.3965C98.2734 19.4743 98.2534 19.4966 98.2477 19.502C98.2402 19.5092 98.2107 19.5305 98.1218 19.5305V19.9305C98.2674 19.9305 98.4137 19.8961 98.5232 19.792C98.6348 19.686 98.6734 19.5413 98.6734 19.3965H98.2734ZM98.1218 19.5305H92.3386V19.9305H98.1218V19.5305ZM92.1386 19.7305V31.3145H92.5386V19.7305H92.1386ZM92.3386 31.5145H104.257V31.1145H92.3386V31.5145ZM104.257 31.5145C104.334 31.5145 104.357 31.5344 104.362 31.5401C104.369 31.5477 104.391 31.5772 104.391 31.666H104.791C104.791 31.5205 104.756 31.3742 104.652 31.2646C104.546 31.1531 104.401 31.1145 104.257 31.1145V31.5145ZM104.391 31.666C104.391 31.7465 104.371 31.7702 104.366 31.7751C104.361 31.78 104.337 31.8 104.257 31.8V32.2C104.399 32.2 104.542 32.1643 104.649 32.0579C104.755 31.9515 104.791 31.8082 104.791 31.666H104.391ZM104.257 31.8H91.9871V32.2H104.257V31.8ZM108.44 19.0449H108.24V19.2449H108.44V19.0449ZM117.212 18.3066L117.302 18.4851L117.304 18.4842L117.212 18.3066ZM117.212 8.2168L117.304 8.03926L117.304 8.03921L117.212 8.2168ZM108.44 7.46094V7.26094H108.24V7.46094H108.44ZM108.44 20.2227L108.582 20.0812L108.24 19.7398V20.2227H108.44ZM117.493 7.61914L117.584 7.44084L117.582 7.44026L117.493 7.61914ZM117.493 18.9043L117.582 19.0832L117.584 19.0826L117.493 18.9043ZM108.915 19.7305V19.5305H108.432L108.773 19.8719L108.915 19.7305ZM120.604 31.8945L120.468 31.7479L120.463 31.7531L120.604 31.8945ZM108.44 19.2449H114.223V18.8449H108.44V19.2449ZM114.223 19.2449C115.276 19.2449 116.303 18.9904 117.302 18.4851L117.121 18.1282C116.175 18.6072 115.209 18.8449 114.223 18.8449V19.2449ZM117.304 18.4842C118.273 17.9816 119.006 17.2917 119.496 16.4133C119.985 15.5363 120.224 14.483 120.224 13.2617H119.824C119.824 14.4311 119.595 15.4139 119.146 16.2185C118.699 17.0218 118.026 17.659 117.12 18.1291L117.304 18.4842ZM120.224 13.2617C120.224 12.0405 119.985 10.9871 119.496 10.1101C119.006 9.23178 118.273 8.54181 117.304 8.03926L117.12 8.39433C118.026 8.86444 118.699 9.50162 119.146 10.3049C119.595 11.1096 119.824 12.0924 119.824 13.2617H120.224ZM117.304 8.03921C116.305 7.5217 115.277 7.26094 114.223 7.26094V7.66094C115.209 7.66094 116.173 7.90408 117.12 8.39438L117.304 8.03921ZM114.223 7.26094H108.44V7.66094H114.223V7.26094ZM108.24 7.46094V19.0449H108.64V7.46094H108.24ZM120.358 31.8C120.321 31.8 120.289 31.7884 120.253 31.7531L119.971 32.036C120.076 32.1412 120.208 32.2 120.358 32.2V31.8ZM120.253 31.7531L108.582 20.0812L108.299 20.3641L119.971 32.036L120.253 31.7531ZM108.24 20.2227V31.666H108.64V20.2227H108.24ZM108.24 31.666C108.24 31.7438 108.22 31.7661 108.215 31.7715C108.207 31.7787 108.177 31.8 108.089 31.8V32.2C108.234 32.2 108.38 32.1656 108.49 32.0615C108.602 31.9556 108.64 31.8109 108.64 31.666H108.24ZM108.089 31.8C108.008 31.8 107.984 31.78 107.98 31.7751C107.975 31.7702 107.955 31.7465 107.955 31.666H107.555C107.555 31.8082 107.59 31.9515 107.697 32.0579C107.803 32.1643 107.946 32.2 108.089 32.2V31.8ZM107.955 31.666V7.12695H107.555V31.666H107.955ZM107.955 7.12695C107.955 7.04645 107.975 7.02281 107.98 7.01789C107.984 7.01296 108.008 6.99297 108.089 6.99297V6.59297C107.946 6.59297 107.803 6.62864 107.697 6.73504C107.59 6.84144 107.555 6.9848 107.555 7.12695H107.955ZM108.089 6.99297H114.223V6.59297H108.089V6.99297ZM114.223 6.99297C115.266 6.99297 116.326 7.25914 117.403 7.79803L117.582 7.44026C116.457 6.87757 115.337 6.59297 114.223 6.59297V6.99297ZM117.402 7.79744C118.444 8.32668 119.217 9.04348 119.732 9.94622C120.247 10.8502 120.51 11.9525 120.51 13.2617H120.91C120.91 11.8991 120.636 10.725 120.079 9.74812C119.522 8.77 118.687 8.00144 117.584 7.44084L117.402 7.79744ZM120.51 13.2617C120.51 14.571 120.247 15.6733 119.732 16.5772C119.217 17.48 118.444 18.1968 117.402 18.726L117.584 19.0826C118.687 18.522 119.522 17.7534 120.079 16.7753C120.636 15.7984 120.91 14.6243 120.91 13.2617H120.51ZM117.403 18.7254C116.326 19.2643 115.266 19.5305 114.223 19.5305V19.9305C115.337 19.9305 116.457 19.6459 117.582 19.0832L117.403 18.7254ZM114.223 19.5305H108.915V19.9305H114.223V19.5305ZM108.773 19.8719L120.463 31.5613L120.746 31.2785L109.056 19.589L108.773 19.8719ZM120.463 31.5613C120.525 31.6233 120.527 31.656 120.527 31.6616C120.527 31.6652 120.527 31.6936 120.468 31.748L120.74 32.0411C120.846 31.9431 120.927 31.8162 120.927 31.6616C120.927 31.5091 120.848 31.3806 120.746 31.2785L120.463 31.5613ZM120.463 31.7531C120.427 31.7884 120.395 31.8 120.358 31.8V32.2C120.508 32.2 120.64 32.1412 120.746 32.036L120.463 31.7531ZM133.384 30.5586L133.292 30.3806L133.292 30.381L133.384 30.5586ZM133.384 20.4863L133.476 20.3088L133.474 20.3079L133.384 20.4863ZM130.395 19.7305L130.398 19.5305H130.395V19.7305ZM127.143 18.9043L127.053 19.0826L127.053 19.0828L127.143 18.9043ZM127.143 7.63672L127.234 7.81502L127.235 7.81444L127.143 7.63672ZM127.407 8.23438L127.499 8.41213L127.499 8.41196L127.407 8.23438ZM127.407 18.3066L127.314 18.484L127.317 18.4851L127.407 18.3066ZM130.395 19.0625L130.393 19.2625H130.395V19.0625ZM133.665 19.8887L133.756 19.7106L133.754 19.7098L133.665 19.8887ZM133.665 31.1562L133.575 30.9778L133.574 30.9781L133.665 31.1562ZM124.26 31.8C124.18 31.8 124.156 31.78 124.151 31.7751C124.147 31.7702 124.127 31.7465 124.127 31.666H123.727C123.727 31.8082 123.762 31.9515 123.869 32.0579C123.975 32.1643 124.118 32.2 124.26 32.2V31.8ZM124.127 31.666C124.127 31.5772 124.148 31.5477 124.155 31.5401C124.16 31.5344 124.183 31.5145 124.26 31.5145V31.1145C124.116 31.1145 123.971 31.1531 123.865 31.2646C123.761 31.3742 123.727 31.5205 123.727 31.666H124.127ZM124.26 31.5145H130.395V31.1145H124.26V31.5145ZM130.395 31.5145C131.449 31.5145 132.477 31.2537 133.476 30.7362L133.292 30.381C132.345 30.8713 131.38 31.1145 130.395 31.1145V31.5145ZM133.475 30.7366C134.444 30.24 135.178 29.5543 135.667 28.6787C136.157 27.8045 136.396 26.7525 136.396 25.5312H135.996C135.996 26.7006 135.767 27.6818 135.318 28.4834C134.871 29.2836 134.198 29.9163 133.292 30.3806L133.475 30.7366ZM136.396 25.5312C136.396 24.31 136.157 23.2566 135.668 22.3797C135.178 21.5013 134.444 20.8113 133.476 20.3088L133.291 20.6639C134.198 21.134 134.87 21.7712 135.318 22.5744C135.767 23.3791 135.996 24.3619 135.996 25.5312H136.396ZM133.474 20.3079C132.476 19.8028 131.45 19.5426 130.398 19.5305L130.393 19.9305C131.38 19.9418 132.346 20.1854 133.293 20.6648L133.474 20.3079ZM130.395 19.5305C129.352 19.5305 128.299 19.2643 127.234 18.7258L127.053 19.0828C128.167 19.6458 129.282 19.9305 130.395 19.9305V19.5305ZM127.234 18.726C126.193 18.1968 125.419 17.48 124.904 16.5772C124.389 15.6733 124.127 14.571 124.127 13.2617H123.727C123.727 14.6243 124 15.7984 124.557 16.7753C125.115 17.7534 125.95 18.522 127.053 19.0826L127.234 18.726ZM124.127 13.2617C124.127 11.9585 124.389 10.8606 124.904 9.95964C125.419 9.05979 126.192 8.34434 127.234 7.81502L127.053 7.45842C125.95 8.01894 125.115 8.78591 124.557 9.76107C124 10.7351 123.727 11.9048 123.727 13.2617H124.127ZM127.235 7.81444C128.3 7.26455 129.353 6.99297 130.395 6.99297V6.59297C129.281 6.59297 128.166 6.88389 127.052 7.45899L127.235 7.81444ZM130.395 6.99297H136.53V6.59297H130.395V6.99297ZM136.53 6.99297C136.608 6.99297 136.63 7.01294 136.636 7.01861C136.643 7.0262 136.664 7.05569 136.664 7.14453H137.064C137.064 6.999 137.03 6.8527 136.926 6.74311C136.82 6.6316 136.675 6.59297 136.53 6.59297V6.99297ZM136.664 7.14453C136.664 7.22503 136.644 7.24867 136.639 7.2536C136.634 7.25853 136.611 7.27852 136.53 7.27852V7.67852C136.672 7.67852 136.816 7.64284 136.922 7.53644C137.028 7.43004 137.064 7.28669 137.064 7.14453H136.664ZM136.53 7.27852H130.395V7.67852H136.53V7.27852ZM130.395 7.27852C129.341 7.27852 128.314 7.53928 127.315 8.05679L127.499 8.41196C128.445 7.92166 129.41 7.67852 130.395 7.67852V7.27852ZM127.315 8.05662C126.352 8.5534 125.623 9.23916 125.136 10.1147C124.65 10.9888 124.412 12.0407 124.412 13.2617H124.812C124.812 12.0921 125.04 11.1108 125.486 10.3091C125.93 9.50888 126.599 8.87628 127.499 8.41213L127.315 8.05662ZM124.412 13.2617C124.412 14.4828 124.65 15.536 125.136 16.4128C125.622 17.2911 126.351 17.9812 127.314 18.4839L127.5 18.1293C126.599 17.6594 125.931 17.0223 125.486 16.219C125.04 15.4142 124.812 14.4313 124.812 13.2617H124.412ZM127.317 18.4851C128.315 18.9901 129.341 19.2504 130.393 19.2625L130.398 18.8625C129.411 18.8512 128.445 18.6075 127.497 18.1282L127.317 18.4851ZM130.395 19.2625C131.438 19.2625 132.498 19.5287 133.575 20.0676L133.754 19.7098C132.629 19.1471 131.509 18.8625 130.395 18.8625V19.2625ZM133.574 20.0668C134.609 20.5959 135.378 21.3126 135.89 22.2153C136.403 23.1194 136.664 24.2218 136.664 25.5312H137.064C137.064 24.1688 136.792 22.9949 136.238 22.0181C135.684 21.04 134.853 20.2713 133.756 19.7106L133.574 20.0668ZM136.664 25.5312C136.664 26.8407 136.403 27.9416 135.89 28.8425C135.379 29.7422 134.61 30.4544 133.575 30.9778L133.755 31.3347C134.853 30.7799 135.683 30.0156 136.238 29.0403C136.792 28.0662 137.064 26.8937 137.064 25.5312H136.664ZM133.574 30.9781C132.496 31.5284 131.437 31.8 130.395 31.8V32.2C131.509 32.2 132.63 31.9091 133.756 31.3344L133.574 30.9781ZM130.395 31.8H124.26V32.2H130.395V31.8ZM140.802 28.7832L140.98 28.6934L140.979 28.6915L140.802 28.7832ZM140.802 10.0098L140.979 10.1015L140.98 10.0996L140.802 10.0098ZM141.399 10.2734L141.577 10.3654L141.577 10.3651L141.399 10.2734ZM141.399 28.5195L141.577 28.4279L141.577 28.4275L141.399 28.5195ZM146.427 31.8C145.117 31.8 144.017 31.5374 143.116 31.0222C142.216 30.5077 141.504 29.7346 140.98 28.6934L140.623 28.873C141.178 29.9764 141.942 30.8116 142.917 31.3694C143.891 31.9265 145.064 32.2 146.427 32.2V31.8ZM140.979 28.6915C140.429 27.6261 140.158 26.5733 140.158 25.5312H139.758C139.758 26.6454 140.049 27.7607 140.624 28.8749L140.979 28.6915ZM140.158 25.5312V13.2617H139.758V25.5312H140.158ZM140.158 13.2617C140.158 12.2197 140.429 11.1669 140.979 10.1015L140.624 9.91804C140.049 11.0323 139.758 12.1475 139.758 13.2617H140.158ZM140.98 10.0996C141.504 9.0584 142.216 8.28526 143.116 7.77078C144.017 7.25559 145.117 6.99297 146.427 6.99297V6.59297C145.064 6.59297 143.891 6.86648 142.917 7.42355C141.942 7.98134 141.178 8.8166 140.623 9.91993L140.98 10.0996ZM146.427 6.99297H152.544V6.59297H146.427V6.99297ZM152.544 6.99297C152.633 6.99297 152.662 7.01425 152.67 7.02146C152.675 7.02685 152.695 7.04915 152.695 7.12695H153.095C153.095 6.9821 153.057 6.8374 152.945 6.73146C152.836 6.62735 152.689 6.59297 152.544 6.59297V6.99297ZM152.695 7.12695C152.695 7.2158 152.674 7.24528 152.667 7.25288C152.661 7.25855 152.639 7.27852 152.561 7.27852V7.67852C152.706 7.67852 152.851 7.63989 152.957 7.52837C153.061 7.41878 153.095 7.27248 153.095 7.12695H152.695ZM152.561 7.27852H146.427V7.67852H152.561V7.27852ZM146.427 7.27852C145.205 7.27852 144.154 7.5165 143.28 8.00244C142.404 8.48921 141.718 9.21849 141.221 10.1818L141.577 10.3651C142.041 9.4651 142.674 8.79692 143.474 8.35205C144.276 7.90636 145.257 7.67852 146.427 7.67852V7.27852ZM141.222 10.1814C140.704 11.1804 140.443 12.2078 140.443 13.2617H140.843C140.843 12.2766 141.086 11.3118 141.577 10.3654L141.222 10.1814ZM140.443 13.2617V25.5312H140.843V13.2617H140.443ZM140.443 25.5312C140.443 26.5852 140.704 27.6126 141.222 28.6115L141.577 28.4275C141.086 27.4811 140.843 26.5164 140.843 25.5312H140.443ZM141.221 28.6112C141.718 29.5745 142.404 30.3038 143.28 30.7905C144.154 31.2765 145.205 31.5145 146.427 31.5145V31.1145C145.257 31.1145 144.276 30.8866 143.474 30.4409C142.674 29.996 142.041 29.3279 141.577 28.4279L141.221 28.6112ZM146.427 31.5145H152.544V31.1145H146.427V31.5145ZM152.544 31.5145C152.63 31.5145 152.658 31.5359 152.666 31.5438C152.674 31.5516 152.695 31.5797 152.695 31.666H153.095C153.095 31.518 153.058 31.3703 152.949 31.2609C152.839 31.1516 152.692 31.1145 152.544 31.1145V31.5145ZM152.695 31.666C152.695 31.7465 152.675 31.7702 152.67 31.7751C152.665 31.78 152.642 31.8 152.561 31.8V32.2C152.703 32.2 152.847 32.1643 152.953 32.0579C153.06 31.9515 153.095 31.8082 153.095 31.666H152.695ZM152.561 31.8H146.427V32.2H152.561V31.8ZM165.411 31.1562L165.503 30.9785L165.501 30.9776L165.411 31.1562ZM159.382 20.4863L159.289 20.6635L159.289 20.6639L159.382 20.4863ZM156.393 19.0449V18.8446L156.383 18.8452L156.393 19.0449ZM159.382 18.3066L159.473 18.4847L159.474 18.4842L159.382 18.3066ZM165.411 7.61914L165.321 7.44064L165.32 7.44084L165.411 7.61914ZM169.014 7.12695H169.215L169.214 7.11644L169.014 7.12695ZM168.663 7.46094V7.26092L168.661 7.26095L168.663 7.46094ZM165.675 8.2168L165.584 8.03833L165.582 8.0395L165.675 8.2168ZM158.415 19.3965L158.357 19.2049L157.716 19.3968L158.358 19.5882L158.415 19.3965ZM161.35 21.1543L161.203 21.2892L161.204 21.2901L161.35 21.1543ZM165.675 30.5586L165.767 30.381L165.766 30.3808L165.675 30.5586ZM169.014 31.666L169.214 31.6765V31.666H169.014ZM168.663 31.8C167.621 31.8 166.568 31.5284 165.503 30.9785L165.319 31.334C166.433 31.9091 167.549 32.2 168.663 32.2V31.8ZM165.501 30.9776C164.46 30.4541 163.686 29.7418 163.172 28.8421C162.657 27.9412 162.394 26.8405 162.394 25.5312H161.994C161.994 26.8938 162.268 28.0666 162.825 29.0407C163.382 30.0161 164.218 30.7803 165.321 31.3349L165.501 30.9776ZM162.394 25.5312C162.394 24.31 162.155 23.2566 161.666 22.3797C161.176 21.5013 160.442 20.8113 159.474 20.3088L159.289 20.6639C160.196 21.134 160.868 21.7712 161.316 22.5744C161.765 23.3791 161.994 24.3619 161.994 25.5312H162.394ZM159.474 20.3092C158.486 19.7911 157.459 19.5305 156.393 19.5305V19.9305C157.391 19.9305 158.355 20.1738 159.289 20.6635L159.474 20.3092ZM156.393 19.5305C156.313 19.5305 156.289 19.5105 156.284 19.5056C156.279 19.5006 156.259 19.477 156.259 19.3965H155.859C155.859 19.5386 155.895 19.682 156.001 19.7884C156.108 19.8948 156.251 19.9305 156.393 19.9305V19.5305ZM156.259 19.3965C156.259 19.3168 156.279 19.2886 156.288 19.2794C156.297 19.27 156.324 19.2488 156.404 19.2446L156.383 18.8452C156.24 18.8527 156.1 18.896 155.998 19.0039C155.895 19.1117 155.859 19.2535 155.859 19.3965H156.259ZM156.393 19.2449C157.458 19.2449 158.485 18.9906 159.473 18.4846L159.29 18.1286C158.356 18.6071 157.391 18.8449 156.393 18.8449V19.2449ZM159.474 18.4842C160.442 17.9816 161.176 17.2917 161.666 16.4133C162.155 15.5363 162.394 14.483 162.394 13.2617H161.994C161.994 14.4311 161.765 15.4139 161.316 16.2185C160.868 17.0218 160.196 17.659 159.289 18.1291L159.474 18.4842ZM162.394 13.2617C162.394 11.9525 162.657 10.8502 163.172 9.94622C163.687 9.04348 164.46 8.32668 165.501 7.79744L165.32 7.44084C164.217 8.00144 163.382 8.77 162.825 9.74812C162.268 10.725 161.994 11.8991 161.994 13.2617H162.394ZM165.501 7.79764C166.567 7.25911 167.62 6.99297 168.663 6.99297V6.59297C167.549 6.59297 166.435 6.87761 165.321 7.44064L165.501 7.79764ZM168.663 6.99297C168.743 6.99297 168.771 7.01263 168.78 7.02146C168.789 7.03034 168.81 7.05762 168.815 7.13746L169.214 7.11644C169.207 6.97363 169.163 6.83392 169.055 6.73146C168.948 6.62897 168.806 6.59297 168.663 6.59297V6.99297ZM168.814 7.12695C168.814 7.20476 168.794 7.22705 168.789 7.23244C168.781 7.23966 168.752 7.26094 168.663 7.26094V7.66094C168.808 7.66094 168.955 7.62655 169.064 7.52244C169.176 7.4165 169.214 7.2718 169.214 7.12695H168.814ZM168.661 7.26095C167.608 7.27305 166.582 7.53332 165.584 8.03834L165.765 8.39525C166.712 7.9159 167.678 7.67227 168.665 7.66092L168.661 7.26095ZM165.582 8.0395C164.619 8.5422 163.89 9.2323 163.403 10.1106C162.918 10.9875 162.68 12.0406 162.68 13.2617H163.08C163.08 12.0922 163.307 11.1092 163.753 10.3044C164.198 9.5011 164.867 8.86405 165.767 8.39409L165.582 8.0395ZM162.68 13.2617C162.68 14.8303 162.315 16.097 161.602 17.0771C160.889 18.0567 159.814 18.7692 158.357 19.2049L158.472 19.5881C159.993 19.1332 161.15 18.3778 161.925 17.3125C162.7 16.2477 163.08 14.8923 163.08 13.2617H162.68ZM158.358 19.5882C159.547 19.9428 160.493 20.5114 161.203 21.2892L161.498 21.0194C160.732 20.18 159.72 19.5768 158.472 19.2048L158.358 19.5882ZM161.204 21.2901C162.182 22.3473 162.68 23.754 162.68 25.5312H163.08C163.08 23.6756 162.558 22.1644 161.497 21.0184L161.204 21.2901ZM162.68 25.5312C162.68 26.7523 162.918 27.8041 163.404 28.6782C163.89 29.5538 164.62 30.2396 165.583 30.7363L165.766 30.3808C164.866 29.9167 164.198 29.2841 163.753 28.4839C163.307 27.6822 163.08 26.7008 163.08 25.5312H162.68ZM165.583 30.7362C166.581 31.2537 167.609 31.5145 168.663 31.5145V31.1145C167.678 31.1145 166.713 30.8713 165.767 30.381L165.583 30.7362ZM168.663 31.5145C168.749 31.5145 168.777 31.5359 168.785 31.5438C168.793 31.5516 168.814 31.5797 168.814 31.666H169.214C169.214 31.518 169.177 31.3703 169.068 31.2609C168.959 31.1516 168.811 31.1145 168.663 31.1145V31.5145ZM168.815 31.6555C168.81 31.7354 168.789 31.7626 168.78 31.7715C168.771 31.7803 168.743 31.8 168.663 31.8V32.2C168.806 32.2 168.948 32.164 169.055 32.0615C169.163 31.9591 169.207 31.8193 169.214 31.6765L168.815 31.6555ZM175.483 30.5586L175.391 30.3808L175.391 30.381L175.483 30.5586ZM179.79 21.1543L179.937 21.2893L179.937 21.2892L179.79 21.1543ZM182.725 19.3965L182.782 19.5882L183.423 19.3972L182.783 19.2049L182.725 19.3965ZM175.483 8.2168L175.576 8.03949L175.573 8.03834L175.483 8.2168ZM172.495 7.46094L172.497 7.26094H172.495V7.46094ZM175.747 7.61914L175.837 7.44084L175.837 7.44064L175.747 7.61914ZM181.759 18.3066L181.666 18.4839L181.667 18.4846L181.759 18.3066ZM184.729 19.0449L184.739 18.8449H184.729V19.0449ZM181.759 20.4863L181.851 20.6636L181.851 20.6635L181.759 20.4863ZM175.747 31.1562L175.657 30.9776L175.655 30.9785L175.747 31.1562ZM172.495 31.8C172.414 31.8 172.391 31.78 172.386 31.7751C172.381 31.7702 172.361 31.7465 172.361 31.666H171.961C171.961 31.8082 171.997 31.9515 172.103 32.0579C172.209 32.1643 172.353 32.2 172.495 32.2V31.8ZM172.361 31.666C172.361 31.5772 172.382 31.5477 172.389 31.5401C172.395 31.5344 172.417 31.5145 172.495 31.5145V31.1145C172.35 31.1145 172.205 31.1531 172.099 31.2646C171.995 31.3742 171.961 31.5205 171.961 31.666H172.361ZM172.495 31.5145C173.549 31.5145 174.576 31.2537 175.575 30.7362L175.391 30.381C174.445 30.8713 173.48 31.1145 172.495 31.1145V31.5145ZM175.575 30.7363C176.538 30.2396 177.267 29.5538 177.754 28.6782C178.24 27.8041 178.478 26.7523 178.478 25.5312H178.078C178.078 26.7008 177.85 27.6822 177.405 28.4839C176.96 29.2841 176.291 29.9167 175.391 30.3808L175.575 30.7363ZM178.478 25.5312C178.478 23.7534 178.97 22.3464 179.937 21.2893L179.642 21.0193C178.594 22.1653 178.078 23.6763 178.078 25.5312H178.478ZM179.937 21.2892C180.648 20.5114 181.593 19.9428 182.782 19.5882L182.668 19.2048C181.42 19.5768 180.409 20.18 179.642 21.0194L179.937 21.2892ZM182.783 19.2049C181.333 18.7693 180.262 18.057 179.552 17.0774C178.841 16.0973 178.478 14.8305 178.478 13.2617H178.078C178.078 14.8922 178.456 16.2475 179.228 17.3122C180 18.3776 181.153 19.133 182.668 19.588L182.783 19.2049ZM178.478 13.2617C178.478 12.0406 178.24 10.9875 177.754 10.1106C177.268 9.2323 176.539 8.5422 175.576 8.0395L175.391 8.39409C176.291 8.86405 176.959 9.5011 177.404 10.3044C177.85 11.1092 178.078 12.0922 178.078 13.2617H178.478ZM175.573 8.03834C174.575 7.53332 173.549 7.27305 172.497 7.26095L172.493 7.66092C173.479 7.67227 174.446 7.9159 175.393 8.39525L175.573 8.03834ZM172.495 7.26094C172.414 7.26094 172.391 7.24095 172.386 7.23602C172.381 7.23109 172.361 7.20745 172.361 7.12695H171.961C171.961 7.26911 171.997 7.41246 172.103 7.51886C172.209 7.62526 172.353 7.66094 172.495 7.66094V7.26094ZM172.361 7.12695C172.361 7.04645 172.381 7.02281 172.386 7.01789C172.391 7.01296 172.414 6.99297 172.495 6.99297V6.59297C172.353 6.59297 172.209 6.62864 172.103 6.73504C171.997 6.84144 171.961 6.9848 171.961 7.12695H172.361ZM172.495 6.99297C173.538 6.99297 174.591 7.25911 175.657 7.79764L175.837 7.44064C174.723 6.87761 173.608 6.59297 172.495 6.59297V6.99297ZM175.656 7.79744C176.698 8.32668 177.471 9.04348 177.986 9.94622C178.501 10.8502 178.764 11.9525 178.764 13.2617H179.164C179.164 11.8991 178.89 10.725 178.333 9.74812C177.776 8.77 176.941 8.00144 175.837 7.44084L175.656 7.79744ZM178.764 13.2617C178.764 14.4828 179.002 15.536 179.487 16.4128C179.974 17.2911 180.703 17.9812 181.666 18.4839L181.851 18.1293C180.951 17.6594 180.282 17.0223 179.837 16.219C179.391 15.4142 179.164 14.4313 179.164 13.2617H178.764ZM181.667 18.4846C182.655 18.9904 183.676 19.2449 184.729 19.2449V18.8449C183.743 18.8449 182.784 18.6072 181.85 18.1286L181.667 18.4846ZM184.719 19.2447C184.807 19.2491 184.84 19.2717 184.851 19.283C184.861 19.2926 184.881 19.3194 184.881 19.3965H185.281C185.281 19.2509 185.242 19.1077 185.134 19.0002C185.028 18.8943 184.885 18.8525 184.739 18.8452L184.719 19.2447ZM184.881 19.3965C184.881 19.4743 184.861 19.4966 184.855 19.502C184.848 19.5092 184.818 19.5305 184.729 19.5305V19.9305C184.875 19.9305 185.021 19.8961 185.131 19.792C185.242 19.686 185.281 19.5413 185.281 19.3965H184.881ZM184.729 19.5305C183.675 19.5305 182.653 19.7913 181.666 20.3092L181.851 20.6635C182.786 20.1736 183.744 19.9305 184.729 19.9305V19.5305ZM181.666 20.309C180.703 20.8117 179.974 21.5018 179.487 22.3801C179.002 23.257 178.764 24.3102 178.764 25.5312H179.164C179.164 24.3617 179.391 23.3787 179.837 22.574C180.282 21.7706 180.951 21.1336 181.851 20.6636L181.666 20.309ZM178.764 25.5312C178.764 26.8405 178.501 27.9412 177.986 28.8421C177.471 29.7418 176.698 30.4541 175.657 30.9776L175.837 31.3349C176.94 30.7803 177.775 30.0161 178.333 29.0407C178.89 28.0666 179.164 26.8938 179.164 25.5312H178.764ZM175.655 30.9785C174.59 31.5284 173.537 31.8 172.495 31.8V32.2C173.609 32.2 174.724 31.9091 175.839 31.334L175.655 30.9785ZM188.948 19.0625H188.748V19.2625H188.948V19.0625ZM194.731 19.0625V19.2625L194.733 19.2625L194.731 19.0625ZM197.719 18.3066L197.81 18.4851L197.812 18.4842L197.719 18.3066ZM197.719 8.23438L197.627 8.41196L197.628 8.41236L197.719 8.23438ZM188.948 7.47852V7.27852H188.748V7.47852H188.948ZM198.001 7.63672L197.91 7.81484L197.911 7.81521L198.001 7.63672ZM198.001 18.9043L198.09 19.0832L198.092 19.0824L198.001 18.9043ZM188.948 19.7305V19.5305H188.748V19.7305H188.948ZM188.948 19.2625H194.731V18.8625H188.948V19.2625ZM194.733 19.2625C195.786 19.2504 196.812 18.9901 197.81 18.4851L197.629 18.1282C196.682 18.6075 195.716 18.8512 194.729 18.8625L194.733 19.2625ZM197.812 18.4842C198.78 17.9816 199.514 17.2917 200.004 16.4133C200.492 15.5363 200.732 14.483 200.732 13.2617H200.332C200.332 14.4311 200.103 15.4139 199.654 16.2185C199.206 17.0218 198.534 17.659 197.627 18.1291L197.812 18.4842ZM200.732 13.2617C200.732 12.0405 200.492 10.9885 200.003 10.1143C199.514 9.23864 198.78 8.55302 197.811 8.05639L197.628 8.41236C198.534 8.87667 199.207 9.50941 199.654 10.3096C200.103 11.1111 200.332 12.0923 200.332 13.2617H200.732ZM197.811 8.05679C196.813 7.53928 195.785 7.27852 194.731 7.27852V7.67852C195.716 7.67852 196.681 7.92166 197.627 8.41196L197.811 8.05679ZM194.731 7.27852H188.948V7.67852H194.731V7.27852ZM188.748 7.47852V19.0625H189.148V7.47852H188.748ZM188.596 31.8C188.516 31.8 188.492 31.78 188.487 31.7751C188.482 31.7702 188.462 31.7465 188.462 31.666H188.062C188.062 31.8082 188.098 31.9515 188.205 32.0579C188.311 32.1643 188.454 32.2 188.596 32.2V31.8ZM188.462 31.666V7.12695H188.062V31.666H188.462ZM188.462 7.12695C188.462 7.04645 188.482 7.02281 188.487 7.01789C188.492 7.01296 188.516 6.99297 188.596 6.99297V6.59297C188.454 6.59297 188.311 6.62864 188.205 6.73504C188.098 6.84144 188.062 6.9848 188.062 7.12695H188.462ZM188.596 6.99297H194.731V6.59297H188.596V6.99297ZM194.731 6.99297C195.773 6.99297 196.832 7.26459 197.91 7.81484L198.092 7.4586C196.966 6.88384 195.845 6.59297 194.731 6.59297V6.99297ZM197.911 7.81521C198.946 8.33852 199.715 9.05076 200.226 9.95044C200.739 10.8514 201 11.9523 201 13.2617H201.4C201.4 11.8993 201.128 10.7267 200.574 9.75269C200.019 8.77736 199.189 8.01304 198.091 7.45823L197.911 7.81521ZM201 13.2617C201 14.5712 200.739 15.6736 200.226 16.5776C199.714 17.4804 198.945 18.1971 197.91 18.7262L198.092 19.0824C199.189 18.5217 200.02 17.753 200.574 16.7749C201.128 15.7981 201.4 14.6242 201.4 13.2617H201ZM197.911 18.7254C196.834 19.2643 195.774 19.5305 194.731 19.5305V19.9305C195.845 19.9305 196.965 19.6459 198.09 19.0832L197.911 18.7254ZM194.731 19.5305H188.948V19.9305H194.731V19.5305ZM188.748 19.7305V31.666H189.148V19.7305H188.748ZM188.748 31.666C188.748 31.7438 188.728 31.7661 188.722 31.7715C188.715 31.7787 188.685 31.8 188.596 31.8V32.2C188.742 32.2 188.888 32.1656 188.998 32.0615C189.109 31.9556 189.148 31.8109 189.148 31.666H188.748ZM205.05 7.47852V7.27852H204.85V7.47852H205.05ZM205.05 19.0625H204.85V19.2625H205.05V19.0625ZM205.05 19.7305V19.5305H204.85V19.7305H205.05ZM205.05 31.3145H204.85V31.5145H205.05V31.3145ZM204.698 31.8C204.617 31.8 204.594 31.78 204.589 31.7751C204.584 31.7702 204.564 31.7465 204.564 31.666H204.164C204.164 31.8082 204.2 31.9515 204.306 32.0579C204.412 32.1643 204.556 32.2 204.698 32.2V31.8ZM204.564 31.666V7.12695H204.164V31.666H204.564ZM204.564 7.12695C204.564 7.04645 204.584 7.02281 204.589 7.01789C204.594 7.01296 204.617 6.99297 204.698 6.99297V6.59297C204.556 6.59297 204.412 6.62864 204.306 6.73504C204.2 6.84144 204.164 6.9848 204.164 7.12695H204.564ZM204.698 6.99297H216.968V6.59297H204.698V6.99297ZM216.968 6.99297C217.048 6.99297 217.072 7.01296 217.077 7.01789C217.082 7.02281 217.102 7.04645 217.102 7.12695H217.502C217.502 6.9848 217.466 6.84144 217.359 6.73504C217.253 6.62864 217.11 6.59297 216.968 6.59297V6.99297ZM217.102 7.12695C217.102 7.2158 217.08 7.24528 217.073 7.25288C217.068 7.25855 217.045 7.27852 216.968 7.27852V7.67852C217.112 7.67852 217.257 7.63989 217.363 7.52837C217.467 7.41878 217.502 7.27248 217.502 7.12695H217.102ZM216.968 7.27852H205.05V7.67852H216.968V7.27852ZM204.85 7.47852V19.0625H205.25V7.47852H204.85ZM205.05 19.2625H210.833V18.8625H205.05V19.2625ZM210.833 19.2625C210.922 19.2625 210.951 19.2838 210.959 19.291C210.964 19.2964 210.984 19.3187 210.984 19.3965H211.384C211.384 19.2516 211.346 19.1069 211.234 19.001C211.125 18.8969 210.978 18.8625 210.833 18.8625V19.2625ZM210.984 19.3965C210.984 19.4743 210.964 19.4966 210.959 19.502C210.951 19.5092 210.922 19.5305 210.833 19.5305V19.9305C210.978 19.9305 211.125 19.8961 211.234 19.792C211.346 19.686 211.384 19.5413 211.384 19.3965H210.984ZM210.833 19.5305H205.05V19.9305H210.833V19.5305ZM204.85 19.7305V31.3145H205.25V19.7305H204.85ZM205.05 31.5145H216.968V31.1145H205.05V31.5145ZM216.968 31.5145C217.045 31.5145 217.068 31.5344 217.073 31.5401C217.08 31.5477 217.102 31.5772 217.102 31.666H217.502C217.502 31.5205 217.467 31.3742 217.363 31.2646C217.257 31.1531 217.112 31.1145 216.968 31.1145V31.5145ZM217.102 31.666C217.102 31.7465 217.082 31.7702 217.077 31.7751C217.072 31.78 217.048 31.8 216.968 31.8V32.2C217.11 32.2 217.253 32.1643 217.359 32.0579C217.466 31.9515 217.502 31.8082 217.502 31.666H217.102ZM216.968 31.8H204.698V32.2H216.968V31.8Z" fill="black" mask="url(#path-11-outside-1_59_172)"/>
</svg>
