<svg width="25" height="25" viewBox="0 0 25 25" fill="none" xmlns="http://www.w3.org/2000/svg">
<g clip-path="url(#clip0_146_1605)">
<path d="M16 14.5H15.21L14.93 14.23C15.91 13.09 16.5 11.61 16.5 10C16.5 6.41 13.59 3.5 10 3.5C6.41 3.5 3.5 6.41 3.5 10C3.5 13.59 6.41 16.5 10 16.5C11.61 16.5 13.09 15.91 14.23 14.93L14.5 15.21V16L19.5 20.99L20.99 19.5L16 14.5ZM10 14.5C7.51 14.5 5.5 12.49 5.5 10C5.5 7.51 7.51 5.5 10 5.5C12.49 5.5 14.5 7.51 14.5 10C14.5 12.49 12.49 14.5 10 14.5Z" fill="#2F2F2F"/>
</g>
<defs>
<clipPath id="clip0_146_1605">
<rect width="24" height="24" fill="white" transform="translate(0.5 0.5)"/>
</clipPath>
</defs>
</svg>
